<?xml version="1.0" standalone="no"?>
<!DOCTYPE svg PUBLIC "-//W3C//DTD SVG 1.1//EN" "http://www.w3.org/Graphics/SVG/1.1/DTD/svg11.dtd" >
<!--
2013-9-30: Created.
-->
<svg>
<metadata>
Created by iconfont
</metadata>
<defs>

<font id="iconfont" horiz-adv-x="1024" >
  <font-face
    font-family="iconfont"
    font-weight="500"
    font-stretch="normal"
    units-per-em="1024"
    ascent="896"
    descent="-128"
  />
    <missing-glyph />
    
    <glyph glyph-name="x" unicode="x" horiz-adv-x="1001"
d="M281 543q-27 -1 -53 -1h-83q-18 0 -36.5 -6t-32.5 -18.5t-23 -32t-9 -45.5v-76h912v41q0 16 -0.5 30t-0.5 18q0 13 -5 29t-17 29.5t-31.5 22.5t-49.5 9h-133v-97h-438v97zM955 310v-52q0 -23 0.5 -52t0.5 -58t-10.5 -47.5t-26 -30t-33 -16t-31.5 -4.5q-14 -1 -29.5 -0.5
t-29.5 0.5h-32l-45 128h-439l-44 -128h-29h-34q-20 0 -45 1q-25 0 -41 9.5t-25.5 23t-13.5 29.5t-4 30v167h911zM163 247q-12 0 -21 -8.5t-9 -21.5t9 -21.5t21 -8.5q13 0 22 8.5t9 21.5t-9 21.5t-22 8.5zM316 123q-8 -26 -14 -48q-5 -19 -10.5 -37t-7.5 -25t-3 -15t1 -14.5
t9.5 -10.5t21.5 -4h37h67h81h80h64h36q23 0 34 12t2 38q-5 13 -9.5 30.5t-9.5 34.5q-5 19 -11 39h-368zM336 498v228q0 11 2.5 23t10 21.5t20.5 15.5t34 6h188q31 0 51.5 -14.5t20.5 -52.5v-227h-327z" />
    

    
    <glyph glyph-name="guideline" unicode="&#58897;" d="M114.75578376 276.60479977c-19.84688501 0-35.97641698 16.12953195-35.97641697 36.03942299L78.77936678 492.77833154c0 19.84688501 16.12953195 35.97641698 35.97641697 35.97641699s35.97641698-16.12953195 35.97641698-35.97641699L150.73220073 312.83324071000004C150.79520673 292.73433174 134.66567475 276.60479977 114.75578376 276.60479977L114.75578376 276.60479977zM906.86701706-83.15936997999995L186.77162371-83.15936997999995c-59.54065506 0-107.9922569 48.13657191-107.99225693 107.11017314l0 72.83491774c0 19.72087305 16.12953195 35.85040502 35.97641697 35.85040499s35.97641698-16.12953195 35.97641698-35.85040499l0-72.83491774c0-19.46884911 16.19253794-35.22034516 35.97641698-35.22034516l720.09539339 0c19.78387902 0 35.91341098 16.12953195 35.91341098 35.85040498L942.71742207 744.80226834c0 19.84688501-16.12953195 36.03942297-35.91341097 36.03942296L186.77162371 780.8416913c-20.85498077 0-35.97641698-11.40408316-35.97641698-19.15381921l0-52.86202072c0-19.84688501-16.12953195-35.97641698-35.97641701-35.97641698s-36.03942297 16.06652597-36.03942294 35.91341097L78.77936678 761.62486612C78.77936678 811.90364152 127.23096863 852.79452525 186.77162371 852.79452525l720.09539335 0C966.34466616 852.79452525 1014.85927399 804.34292341 1014.85927399 744.80226834l-1e-8-720.09539337C1014.85927399-34.770774120000056 966.34466616-83.15936997999995 906.86701706-83.15936997999995L906.86701706-83.15936997999995zM150.79520673 564.7941715L42.73994381 564.7941715C22.89305879 564.7941715 6.76352686 580.92370344 6.76352686 600.77058846c0 19.90989101 16.12953195 36.03942297 35.97641695 36.03942297l107.99225692 0C170.57908575 636.81001143 186.70861772 620.68047947 186.70861772 600.77058846 186.77162371 580.92370344 170.64209175 564.7941715 150.79520673 564.7941715L150.79520673 564.7941715zM150.79520673 168.86456680000003L42.73994381 168.86456680000003C22.89305879 168.86456680000003 6.76352686 184.67906885000002 6.76352686 204.71497179000005s16.12953195 36.03942297 35.97641695 36.03942298l107.99225692 0c19.84688501 0 35.97641698-16.12953195 35.97641699-36.03942298C186.70861772 184.80508081000005 170.64209175 168.86456680000003 150.79520673 168.86456680000003L150.79520673 168.86456680000003zM752.3763438 618.41226405l-464.98416336 0 0-78.75748026 464.98416338 0L752.3763438 618.41226405zM836.42632674 420.57347366L287.39218044 420.57347366l0-83.67194701 549.0341463 0L836.42632674 420.57347366zM836.42632674 229.03528172999995L287.39218044 229.03528172999995l0-83.67194706 549.0341463 0L836.42632674 229.03528172999995z"  horiz-adv-x="1024" />

    
    <glyph glyph-name="stock" unicode="&#58914;" d="M158.39575979 268.27662717c11.34665791-9.34061892 25.53520474-14.37661299 40.03719394-14.37661298 2.48665205 0 4.97330534 0.1462741 7.4599574 0.43882104 17.07222786 2.04783105 32.55634111 10.99142224 42.96266824 24.74114684l130.18356996 172.54024766 129.61937151-109.60077512c13.14373408-11.09590302 30.19506525-16.61251019 47.30908517-14.56467916 17.09312326 1.79707616 32.72351063 10.46901586 43.29700724 24.09336422l297.70872022 383.17433904c2.17320848 2.80009565 3.88670051 5.8091541 5.53750381 8.81821253l52.26149388 61.81107565c28.00096014 33.12053959 15.96472635 54.62276974-26.74718579 47.76880284L681.72117486 813.62667883c-42.7328088-6.85396686-51.61371131-36.50573034-19.74694606-65.92763435l49.25243545-45.44932031-171.32826536-220.51801212-130.30894742 110.20676568c-13.26911152 11.15859175-30.42492469 16.42444402-47.76880285 14.52288585-17.21850071-1.9224536-32.91157679-10.88694021-43.38059261-24.78294012l-130.74776843-173.29251229-62.79319844 51.59281464c-27.03973396 22.23359811-66.9097584 18.26331348-89.01797909-8.94358998-22.10822069-27.16511141-18.13793604-67.20230534 8.92269456-89.39411138L158.39575979 268.27662717zM899.83612029 557.45968179L609.50377213 204.37592725000002c-13.03925327-16.5080294-46.20158494 7.1883059-62.20810458 20.77086217l-116.68460022 102.51695004c-16.00651963 13.58255508-39.99540187-9.40330766-53.30630666-25.70237423l-135.59569633-166.12510184c-13.29000814-16.29906658-37.19530621 2.38217127-53.07644721 16.11100045l-118.3145069 93.97038779c-21.23057865 20.39472988-41.47903443-0.87764205-41.47903442-41.54172317L29.57044499-47.29837756999996c0.0417921-21.10520121 17.21850071-38.36549522 38.13563699-38.38639185l876.13751812-0.68957589c20.93803169-0.02089663 38.05205162 17.23939737 38.05205162 38.34459859 0 0 0.87764205 543.49028553 0.87764205 584.73946176C982.79418917 592.02206186 939.05836091 602.63735059 899.83612029 557.45968179z"  horiz-adv-x="1024" />

    
    <glyph glyph-name="player-play" unicode="&#58880;" d="M928.10263635 437.17352729c-53.52106668 32.76800001-678.2976 417.24586668-709.97333334 435.81439996-39.32160001 24.02986667-78.64320001-6.5536-78.64319999-46.96746665 0-31.67573333 0-827.93813333 0-873.81333331 0-44.78293335 43.69066665-66.62826669 76.45866666-46.96746668 45.8752 27.30666666 672.83626665 412.87679998 712.15786667 436.90666668C963.05516968 363.99166062999996 963.05516968 416.4204606 928.10263635 437.17352729z"  horiz-adv-x="1024" />

    
    <glyph glyph-name="dangwu" unicode="&#59364;" d="M512.33900969 883.91933885c254.81643501-95.619763 409.4519964-401.17588615 277.00940812-648.73380224L466.07920648 560.07251539l123.37790099 123.87879979-77.16660805 76.84395771c-42.5651108-41.73253584-110.26315335-50.61220672-155.89683309-32.22899713L110.68704436 482.63853526l139.15846722-138.6947973 92.73621046 92.40227757 323.15301137-324.35787588c-158.13169927-86.86644463-377.340326-59.47721162-539.11933526 108.62169523l-78.33762824-78.11538298c23.45424479-32.54375169 43.11113532-62.03924055 67.55928077-86.76603953-2.11753839-2.54510731-8.85710802-8.07981241-8.97105126-8.21857527-4.12113354 0.65996778-8.98346051 2.24501872-13.31330115 2.24501871-41.67387194 0-75.33787681-36.27905751-75.33787681-78.00031191 0-41.67387194 34.01034701-75.65263028 75.67406533-75.65263027 41.69869155 0 77.3640348 34.30028197 77.36403481 75.98769096 0 4.86007136-1.08866452 9.29483054-1.94493123 13.90106796l12.05202948 11.8433213c185.99588256-125.51010427 389.83120691-141.14965203 609.1887501-9.86229013l90.56226489-90.92101625L1005.09362316 19.39181986999995l-91.1511595 92.16875089C1175.5424673 505.9314543 826.72516454 893.34277862 512.33900969 883.91933885L512.33900969 883.91933885zM512.33900969 883.91933885c254.81643501-95.619763 409.4519964-401.17588615 277.00940812-648.73380224L466.07920648 560.07251539l123.37790099 123.87879979-77.16660805 76.84395771c-42.5651108-41.73253584-110.26315335-50.61220672-155.89683309-32.22899713L110.68704436 482.63853526l139.15846722-138.6947973 92.73621046 92.40227757 323.15301137-324.35787588c-158.13169927-86.86644463-377.340326-59.47721162-539.11933526 108.62169523l-78.33762824-78.11538298c23.45424479-32.54375169 43.11113532-62.03924055 67.55928077-86.76603953-2.11753839-2.54510731-8.85710802-8.07981241-8.97105126-8.21857527-4.12113354 0.65996778-8.98346051 2.24501872-13.31330115 2.24501871-41.67387194 0-75.33787681-36.27905751-75.33787681-78.00031191 0-41.67387194 34.01034701-75.65263028 75.67406533-75.65263027 41.69869155 0 77.3640348 34.30028197 77.36403481 75.98769096 0 4.86007136-1.08866452 9.29483054-1.94493123 13.90106796l12.05202948 11.8433213c185.99588256-125.51010427 389.83120691-141.14965203 609.1887501-9.86229013l90.56226489-90.92101625L1005.09362316 19.39181986999995l-91.1511595 92.16875089C1175.5424673 505.9314543 826.72516454 893.34277862 512.33900969 883.91933885L512.33900969 883.91933885z"  horiz-adv-x="1024" />

    
    <glyph glyph-name="activity" unicode="&#58940;" d="M467.03359999 862.1568C359.5712 852.144 254.6912 805.92 172.3904 723.5904 90.032 641.2896000000001 43.7984 536.4096000100001 33.80479999 428.8512c117.888-13.6416 243.36-73.9008 346.21440002-176.8032 102.95039999-102.9984 163.31519999-228.48 176.89919999-346.2144 107.664 9.888 212.3424 56.17919999 294.7392 138.4896 82.3008 82.3008 128.5536 187.1712 138.4896 294.6432-117.744 13.63200001-243.168 73.9392-346.2144 176.8992C541.0784 618.768 480.7712 744.2592 467.03359999 862.1568zM991.9328 398.5056c-3.504 118.032-50.18879999 234.9984-140.2176 325.1616C761.6864 813.7728 644.6048 860.35200001 526.4864 864c13.3536-103.1712 68.0448-213.92640001 159.8976-305.7408C778.1024 466.3968 888.8864 411.76320001 991.9328 398.5056zM32.0768 369.44639999000003C35.6288 251.37599999999998 82.304 134.39999999999998 172.3904 44.31359999999995 262.4192-45.77279999999996 379.40480001-92.54399999999998 497.4752-96c-13.3536 102.96-68.0448 213.7824-159.8016 305.5968C245.8112 301.40160001000004 135.0752 356.0544 32.0768 369.44639999000003z"  horiz-adv-x="1024" />

    
    <glyph glyph-name="download" unicode="&#58974;" d="M499.727 141.64099999999996c6.761-7.513 17.723-7.515 24.479-0.01l142.207 157.974c10.14 11.264 6.062 20.396-9.079 20.396L544.012 320.001 544.012 799.002c0 17.672-14.322 31.998-32 31.998-17.673 0-32-14.321-32-31.998L480.012 320l-113.34 0c-15.154 0-19.224-9.13-9.076-20.407L499.727 141.64099999999996zM928 256c-17.673 0-32-14.327-32-32l0-224L128 0 128 224c0 17.673-14.327 32-32 32s-32-14.327-32-32l0-256c0-17.673 14.327-32 32-32l832 0c17.673 0 32 14.327 32 32L960 224C960 241.673 945.673 256 928 256z"  horiz-adv-x="1024" />

    
    <glyph glyph-name="employer-manage" unicode="&#59000;" d="M433.31871712 324.99475034c124.41599972 20.34247899 219.36999673 128.31820187 219.36999673 258.48721975C652.68744462 728.15412848 535.40813239 845.43471085 390.73470383 845.43471085 246.06254542 845.43471085 128.78323319 728.15412848 128.78323319 583.48197009c0-130.16901785 94.95145761-238.14474075 219.36745824-258.48721975C178.98758344 300.28799960000003 48.04802651 130.33912068999996 48.04802651-75.65117381000005l685.37208628 0C733.4175734 130.33912068999996 602.4818251 300.28799960000003 433.31871712 324.99475034zM960.15021456 182.52884658000005L725.01781178 182.52884658000005c14.2556029-24.41351399 26.63754076-50.4658514 36.90208272-77.86631397l198.23032095-1e-8c24.26753022 0 44.12001357 17.5205555 44.12001357 38.93315746C1004.27022812 165.00956030999998 984.41901493 182.52884658000005 960.15021456 182.52884658000005zM960.15021456 630.09258854L695.92521032 630.09258854c4.38077371-20.84263128 6.69873715-42.44691604 6.69873718-64.58816568 0-95.61663502-42.95722323-181.18452928-110.60596356-238.50779493 33.25503461-22.48526245 63.54343123-50.36556672 90.02991038-82.60633414l278.10232024 0c24.26753022-0.00380865 44.12001357 19.85121318 44.12001356 44.11874341l0 297.46353687C1004.27022812 610.23756673 984.41901493 630.09258854 960.15021456 630.09258854z"  horiz-adv-x="1053" />

    
    <glyph glyph-name="volumemute2" unicode="&#59288;" d="M1016.64455154 276.93274389l0-89.03415866-89.03415866 0-112.40058944 112.40058945-112.40058944-112.40058945-89.03415869 0 0 89.03415866 112.40058946 112.40058944-112.40058946 112.40058944 0 89.03415866 89.03415869 0 112.40058944-112.40058945 112.40058944 112.40058945 89.03415866 0 0-89.03415866-112.40058945-112.40058944 112.40058945-112.40058944zM445.91276524-80.68107893000001c-8.72883909 0-17.32338834 3.42439073-23.73572782 9.83673021l-258.74293396 258.74293395-120.39083443 0c-18.53199683 0-33.57245802 15.0404612-33.57245803 33.572458l0 335.7245802c0 18.53199683 15.0404612 33.57245802 33.57245803 33.572458l120.39083445 0 258.74293394 258.74293395c9.60172298 9.60172298 24.03787994 12.48895438 36.59397924 7.28522339s20.7142066-17.42410571 20.71420661-31.02095122l0-872.88390844c0-13.56327305-8.19167976-25.81722025-20.71420661-31.02095122-4.1629848-1.71219537-8.52740435-2.5515068-12.85825142-2.55150682z"  horiz-adv-x="1024" />

    
    <glyph glyph-name="volumelow" unicode="&#59304;" d="M741.66582677 130.74362039000005c-13.58815843 0-27.17631682 5.16633107-37.54436479 15.53437905-20.73609592 20.73609592-20.73609592 54.31724782 0 75.05334372 89.66769119 89.66769119 89.66769119 235.59885083 0 325.26654201-20.73609592 20.73609592-20.73609592 54.35263366 0 75.05334376s54.31724782 20.73609592 75.05334373 0c131.06911137-131.06911137 131.06911137-344.33950396 0-475.40861532-10.36804797-10.36804797-23.95620638-15.53437903-37.54436479-15.53437903zM594.56693477-111.40160881999998c-9.20031561 0-18.25908788 3.60935458-25.01778124 10.36804797l-272.71858565 272.71858566-126.89358352 0c-19.53297772 0-35.38582921 15.85285148-35.38582918 35.38582917l0 353.85829204c0 19.53297772 15.85285148 35.38582921 35.38582918 35.38582917l126.89358352 0 272.71858565 272.71858566c10.12034714 10.12034714 25.3362537 13.16352846 38.57055383 7.67872494s21.83305661-18.36524536 21.83305662-32.69650618l0-920.03155922c0-14.295875-8.63414233-27.21170266-21.83305662-32.69650618-4.38784282-1.80467729-8.98800062-2.68932303-13.55277259-2.68932303z"  horiz-adv-x="1024" />

    
    <glyph glyph-name="filter" unicode="&#58990;" d="M638.656 464.416l0-329.568-255.488-192.064 0 524.128L64 832.224l896 0L638.656 464.416zM447.2 490.944l0-419.968 127.456 95.84 0 321.664 244.448 279.744-614.176 0L447.2 490.944z"  horiz-adv-x="1024" />

    
    <glyph glyph-name="cross" unicode="&#59164;" d="M555.93145078 401.57740246l350.83022792 350.83022792c12.11687822 12.11687822 12.11687822 31.81457257 0 43.93145077s-31.81457257 12.11687822-43.93145079 0l-350.83022791-350.8302279-350.83022791 350.8302279c-12.11687822 12.11687822-31.81457257 12.11687822-43.93145079 0s-12.11687822-31.81457257 0-43.93145077l350.83022792-350.83022792-350.83022792-350.8302279c-12.11687822-12.11687822-12.11687822-31.81457257 0-43.93145079 6.08950803-6.08950803 14.04315117-9.07212421 21.99679432-9.07212422s15.90728628 3.04475402 21.9967943 9.07212422l350.83022791 350.83022791 350.83022792-350.83022791c6.08950803-6.08950803 14.04315117-9.07212421 21.9967943-9.07212422s15.90728628 3.04475402 21.99679433 9.07212422c12.11687822 12.11687822 12.11687822 31.81457257-1e-8 43.93145079l-350.83022792 350.8302279z"  horiz-adv-x="1024" />

    
    <glyph glyph-name="WIFI" unicode="&#58941;" d="M679.79885669 155.53828535000002C663.00342814 155.53828535000002 646.27199993 162.55085705 634.13028535 176.31085724000002 602.93485695 211.74857114999998 558.464 232.01828591000003 512.1097142 232.01828591000003 465.00571457 232.01828591000003 421.66857162 212.31542865999995 390.21714276 176.56685670000002 367.32342814 150.61028537000004 328.3931425 148.58971401999997 303.10400007 172.20571421 277.82400045 195.76685678 275.93142885 235.80342813000004 298.8251425 261.76000045 353.17028598 323.46514277000006 430.91200028 358.82971456999996 512.1097142 358.82971456999996 593.18857115 358.82971456999996 670.93028543 323.33714303 725.45828526 261.51314276999994 748.36114267 235.55657142999996 746.41371447 195.52000009999995 721.18857143 171.95885750000002 709.43085706 160.90514313999995 694.5828567 155.53828535000002 679.79885669 155.53828535000002L679.79885669 155.53828535000002 679.79885669 155.53828535000002ZM816.65828543 314.24914242C800.94171428 314.24914242 785.152 320.43885714 773.13828615 332.69028589000004 703.32342821 404.11428571 610.61485759 443.4011432 512.1097142 443.4011432 413.36685686 443.4011432 320.6491425 404.17828607 250.96228526 332.93714258 226.81599965 308.17828562 187.74857152 308.37942848 163.72114285 333.19314305 139.70285697 358.01600035 139.8308567 398.18057142 163.97714331 422.87542902 256.94171438 517.85142866 380.5988567 570.2125718699999 512.1097142 570.2125718699999 643.44685715 570.2125718699999 767.0400001 517.7965710799999 860.18742848 422.55542821 884.34285686 397.86057161 884.40685724 357.69599955 860.44342893 332.80914284999994 848.36571473 320.49371472999997 832.51200007 314.24914242 816.65828543 314.24914242L816.65828543 314.24914242 816.65828543 314.24914242ZM953.21599993 472.57600029C937.86514242 472.57600029 922.52342866 478.4457142 910.50971385 490.19428579 802.8342859 596.28800019 661.37599971 654.7748567799999 512.1097142 654.7748567799999 362.54171438 654.7748567799999 221.01942885 596.4159999 113.60000035 490.37714314 89.06057179 466.19428543 50.01142821 466.95314305 26.35885695 492.2788575 2.77028607 517.5405716099999 3.59314303 557.70514268 28.11428607 581.9611425 158.62857108 710.72914314 330.46857142 781.71428615 512.04571385 781.71428615 693.25714258 781.71428615 865.09714294 710.72914314 995.85828562 581.89714314 1020.45257179 557.6411433000001 1021.26628598 517.47657124 997.75085723 492.21485714 985.60914267 479.14057143 969.38057162 472.57600029 953.21599993 472.57600029L953.21599993 472.57600029 953.21599993 472.57600029ZM437.57714286 62.89371409C437.57714286 20.580570989999956 470.91199955-13.71428615000002 512.1097142-13.71428615000002 553.24342848-13.71428615000002 586.64228553 20.580570989999956 586.64228553 62.89371409 586.64228553 105.20685722999997 553.24342848 139.50171437999995 512.1097142 139.50171437999995 470.9759999 139.43771402000004 437.57714286 105.20685722999997 437.57714286 62.89371409L437.57714286 62.89371409 437.57714286 62.89371409Z"  horiz-adv-x="1025" />

    
    <glyph glyph-name="holiday" unicode="&#58953;" d="M992.23789506 687.15612321c-110.31383571 171.09806307-390.31760165 65.52637473-294.38692383 62.91442092 444.24573994-12.13107442 247.08966547-467.91584611 231.31114287-398.44019691-48.42097955 213.26776644-214.68866957 285.29616476-284.18289165 306.51683769-51.33011523-12.6139952-250.33893588-76.22261529-304.11848327-313.73395657-15.81799172-69.87382588-213.62879626 388.63085986 232.0691899 400.84551675 96.24643373 2.63749324-184.66280971 108.84069439-295.35740973-63.29286422-20.35814833-31.66616606 83.5627857 370.57471323 355.46601196 129.26385009 0.63151286 0.59204267 1.09469913 1.18292482 1.72969358 1.75058974C908.18754418 1058.89054517 1012.62158165 655.55496561 992.23789506 687.15612321L992.23789506 687.15612321zM277.57367874 49.05001371000003c0 0 302.99824585 58.84209494 319.85173198 496.3130072 4.13617394 107.63803395 107.05063448 62.57312564 102.09140507 10.02293758-3.33285289-35.44247183 10.54881013-412.72700429-126.5868878-464.14070198C453.01455085 46.28946896000002 376.45644403 66.18210884999996 277.57367874 49.05001371000003L277.57367874 49.05001371000003zM509.64286866-14.244011010000008c338.46045222 147.22016238 520.82706397-48.77388343 485.23251849-42.1882774-258.43715341 47.86608378-254.49484435 34.28392476-527.42776128-42.1987255C115.44100212-197.26187015000005 3.30924604 49.05001371000003 3.30924604 49.05001371000003 123.3093684-10.294736560000047 295.08305662-107.55460801000004 509.64286866-14.244011010000008L509.64286866-14.244011010000008zM509.64286866-14.244011010000008"  horiz-adv-x="1024" />

    
    <glyph glyph-name="Recruitment" unicode="&#59168;" d="M919.98424009 46.099742210000045c-0.90649399 11.0296344-3.11066498 21.68689202-6.46080545 31.82507826C876.62926328 228.56578092999996 756.02421531 346.40746503 603.78090419 379.31958293c-1.27761726-0.48897978-2.56651788-0.95915331-3.85416608-1.42932581l0 0c1.28764715 0.47017355 2.57654877 0.94034603 3.85416608 1.42932581 95.43135175 36.63463615 163.2340775 129.16094531 163.23407749 237.47253299 0 140.29213693-113.89473722 254.18687416-254.23702554 254.18687414-140.38617123 0-254.37870524-113.89473722-254.37870523-254.18687414 0-109.52149978 69.38501462-202.91919639 166.54911139-238.69122148 1.70516134-0.62689701 3.41408415-1.2349878 5.13805173-1.8267793-1.71895266 0.59179151-3.43289039 1.19988227-5.13805173 1.8267793-0.28837336-0.06895863-0.5817606-0.14167871-0.87138742-0.21063732-1.28764715 0.47017355-2.57654877 0.94034603-3.85918098 1.42932581C267.9744838 346.40746503 147.37194276 228.56578092999996 110.47651793 77.92482046999999c-3.35014045-10.13818622-5.55431142-20.80045878-6.45453702-31.82507826-0.30968757-3.76138525-0.47518848-7.56163742-0.47518848-11.40201218 0-76.03514312 61.641577-137.67672013 137.67672015-137.67672009L511.32355361-102.97899006l1.35159084 0 270.10004002 0c76.03514312 0 137.67797465 61.641577 137.67797463 137.67672009C920.45441361 38.53810376000001 920.29141967 42.33835700999998 919.98424009 46.099742210000045L919.98424009 46.099742210000045zM435.2633348 374.55516249000004c-0.94536099 0.30341813-1.88570806 0.6218821-2.82605409 0.93533111C433.37762676 375.17704456 434.3179728 374.85858063 435.2633348 374.55516249000004L435.2633348 374.55516249000004zM461.76479863 367.63922933000003c-0.06895863 0.01504582-0.13791723 0.03009061-0.20562238 0.04388294C461.6281359 367.66931993000003 461.69584002 367.65427514 461.76479863 367.63922933000003L461.76479863 367.63922933000003zM456.38225754 368.79522764c-0.17177034 0.04388294-0.34855457 0.0877659-0.51907141 0.12788738C456.03370195 368.87797857 456.21048721 368.83911056 456.38225754 368.79522764L456.38225754 368.79522764zM451.04485182 370.06908344c-0.32849382 0.08275097-0.65698867 0.17051583-0.98422899 0.25452027C450.39162462 370.2396003 450.71510349 370.15183442 451.04485182 370.06908344L451.04485182 370.06908344zM445.74380717 371.45452735000003c-0.46515761 0.12287143-0.92530023 0.26455114-1.39045882 0.39243751C444.81850593 371.71907852000004 445.27864857 371.57739881 445.74380717 371.45452735000003L445.74380717 371.45452735000003zM440.47912155 372.94779687000005c-0.64695777 0.19183109-1.28764715 0.39745348-1.92959101 0.5980599C439.19272788 373.34525035 439.83216379 373.13962798 440.47912155 372.94779687000005L440.47912155 372.94779687000005zM512.67639894-81.25323107999998l0 1.3465759-0.67579588-0.67579595-0.67579595-0.67077995-119.04156536 109.49140918 89.31283248 210.05454428c-28.20035678 29.24852946-47.03235756 79.75264542-47.03235753 79.75264541l-0.23947446 3.09060422c28.10757597 23.21025317 54.51124507 30.19890641 77.00056588 29.46418273l0-0.04889784c0.22568316 0.01002986 0.4501128 0.01504582 0.67579594 0.02507568 0.22568316-0.01002986 0.45512772-0.01504582 0.67579591-0.02507568l0 0.04889784c22.49559027 0.73472366 48.89800489-6.25392954 77.00558085-29.46418273l-0.23947445-3.09060422c0 0-18.83200078-50.50913089-47.03235756-79.75264541l89.30781757-210.05454428L512.67639894-81.25323107999998 512.67639894-81.25323107999998z"  horiz-adv-x="1024" />

    
    <glyph glyph-name="zanting" unicode="&#58994;" d="M303.54713544-2.490063129999953C303.54713544-61.30548902999999 254.55140135-108.98459482999999 194.1183311-108.98459482999999 133.6786536-108.98459482999999 84.68127666-61.30548902999999 84.68127666-2.490063129999953L84.68127666 770.56389024C84.68127666 829.37938255 133.6786536 877.06006577 194.1183311 877.06006577 254.55140135 877.06006577 303.54713544 829.37938255 303.54713544 770.56389024L303.54713544-2.490063129999953 303.54713544-2.490063129999953ZM874.35802694-2.490063129999953C874.35802694-61.30548902999999 825.36064321-108.98459482999999 764.92757296-108.98459482999999 704.48790125-108.98459482999999 655.49051755-61.30548902999999 655.49051755-2.490063129999953L655.49051755 770.56389024C655.49051755 829.37938255 704.48790125 877.06006577 764.92757296 877.06006577 825.36064321 877.06006577 874.35802694 829.37938255 874.35802694 770.56389024L874.35802694-2.490063129999953 874.35802694-2.490063129999953Z"  horiz-adv-x="1024" />

    
    <glyph glyph-name="Insurance" unicode="&#59083;" d="M870.3620068 739.66369672L870.3620068 739.66369672c-159.08779236 0-308.77511618 131.46655126-310.26077929 132.80415171-13.65298962 12.38891649-30.86552544 18.541072-48.08209094 18.541072-17.18735573 0-34.3656462-6.16524848-48.00957052-18.44337046C461.76546099 870.57123582 313.60711001 739.66369672 153.66619503 739.66369672c-39.56999832 0-71.6653505-32.09132348-71.6653505-71.66535054l0-216.72345012c0-196.25152111 116.34200043-360.96972297 389.0623469-550.76692072 12.31538915-8.56648247 26.62609837-12.85022714 40.94083726-12.85022713 14.32078245 0 28.6163828 4.27870907 40.93177197 12.85022713 272.71933953 189.79618985 389.06234692 354.5153996 389.06234691 550.76692072L941.99814854 667.9983452c0.01510885 39.5599261-32.05707713 71.6653505-71.64218428 71.6653505L870.3620068 739.66369672zM685.42771135 335.57550736999997L565.75279035 335.57550736999997l0-131.80498035-107.49147879 0L458.2613106 335.57550736999997 338.60049051 335.57550736999997 338.60049051 443.08108706l119.65981315 0L458.26030366 562.7409002300001l107.49147875 0 0-119.65981317 119.674921 0L685.42670441 335.57550736999997 685.42771135 335.57550736999997zM685.42771135 335.57550736999997"  horiz-adv-x="1024" />

    
    <glyph glyph-name="xiuli" unicode="&#59045;" d="M966.18153929 692.4920689c-16.23694861-18.1851167-43.19601426-41.42374476-81.82970786-76.72752046-40.93476706-40.84626369-98.8410558-40.84626369-139.78356673 0-40.93476706 40.86617735-40.93476706 98.64524353 0 139.49150829 37.70220123 37.62476172 78.25419353 82.23128925 77.58931614 82.41714472-109.57312966 50.45324482-243.53099869 30.95496802-333.85144583-59.15971004-82.27996641-82.11402352-105.77414555-200.38366047-71.1363543-303.46400207L68.96096576 127.56750251000005c-51.46217778-51.35486779-51.46217778-134.62385239-1e-8-185.97761422 51.47102758-51.36482463 134.90706208-51.36482463 186.37919564 0l348.207709 347.47313598c103.3060233-34.57915838 221.82015073-11.12480439 304.10011602 70.9792623C997.87108038 450.07731206 1016.58500213 583.2331243 966.18153929 692.4920689z"  horiz-adv-x="1024" />

    
    <glyph glyph-name="Five_insurance_payments" unicode="&#58999;" d="M1004.96231544 482.90666607L533.88689597 887.78115789c-12.51840369 10.88311701-31.12684068 10.88311701-43.75802301 0L19.10984399 482.90666607c-10.68575442-9.16324635-19.5106649-22.1327634-14.60480369-35.35603124 4.90586115-13.30785293 14.09730103-28.19460208 28.19460205-28.19460208l112.77841059 0 0-507.50284533c0-18.60843817 9.61435975-28.19460208 28.19460208-28.19460206l674.83781079 0c18.58024351 0 30.02725133 9.58616508 30.02725132 28.19460206l0 507.50284533 112.77841063 0c14.04091171 0 23.34513138 14.88675028 28.19460206 28.19460209S1015.64806869 473.74341971 1004.96231544 482.90666607zM652.95270248 278.38301894999995c15.56342093 0 28.13821274-12.65937697 28.13821277-28.19460208 0.08458396-15.53522625-12.57479297-28.19460208-28.13821277-28.19460207l-112.75021595 0 0-169.16761472c0-15.53522625-12.65937697-28.13821274-28.19460208-28.13821276-15.56342093-0.05638933-28.19460208 12.60298765-28.19460208 28.13821276l0 169.16761472-112.77841057 0c-15.56342093 0-28.19460208 12.65937697-28.19460205 28.19460207s12.63118229 28.19460208 28.19460205 28.19460208l112.77841057 0 0 56.38920529-112.77841057 0c-15.56342093 0-28.19460208 12.65937697-28.19460205 28.1946021s12.63118229 28.19460208 28.19460205 28.19460206l86.33187265 0-99.47055765 115.96439994c-9.7835265 11.3342304-8.48657575 28.42015931 2.81946001 38.11910302 11.22145175 9.81172116 28.25099139 8.54296505 38.03451907-2.81945996l112.6374373-131.30226362 116.58468125 131.6405995c9.86811051 11.27784107 26.98223412 12.23645711 38.00632439 2.28376265 11.16506244-9.92449981 12.26465175-26.98223412 2.3119573-38.17549236l-102.40279628-115.71064917L652.95270248 391.16142952c15.56342093 0 28.13821274-12.65937697 28.13821277-28.19460205 0.08458396-15.53522625-12.57479297-28.19460208-28.13821277-28.19460207l-112.75021595 0 0-56.38920529L652.95270248 278.38301894999995z"  horiz-adv-x="1024" />

    
    <glyph glyph-name="work" unicode="&#58931;" d="M674.71132492 210.37932084l-14.36875997-14.36875999c-12.1570252-12.04779136-32.34223676-12.57592195-45.01636897-1.2707203L449.61444788 337.29301182999995c-12.67914293 11.30820807-22.29973825 34.55998443-21.45292544 51.46116568l17.33611235 273.7019285c0.74459399 16.90118129 15.42101258 30.85204664 32.44746202 30.85204667l20.3956621 0c16.90118129 0 31.4854025-13.95186752 32.33121317-30.85204665l14.15430089-224.13281322c0.84881711-17.01642799 10.89131565-41.21823812 22.19952372-53.89838319l108.94923352-129.1304365C687.29225759 242.60631090000004 686.76412702 222.42611003000002 674.71132492 210.37932084L674.71132492 210.37932084zM513.23764949 878.86839149c-273.18482151 0-494.78721771-221.49216023-494.7872177-494.86438291 0-273.37823557 221.60740693-494.87640867 494.7872177-494.87640865 273.38224414 0 495.00167683 221.4981731 495.00167685 494.87640865C1008.23932634 657.3772334 786.62089579 878.86839149 513.23764949 878.86839149L513.23764949 878.86839149z"  horiz-adv-x="1024" />

    
    <glyph glyph-name="huiyizhongquanping" unicode="&#58932;" d="M538.71205978 868.91483311l150.74328995-150.74328995L540.1338648 568.81807025c-37.80743118-37.77654698-37.80743118-99.05423481 2e-8-136.86056325 37.77654698-37.80743118 99.08401631-37.80743118 136.86166599 0l149.32258868 149.32258867 147.90078359-147.90078362 0.0297815 435.5355221L538.71205978 868.91483311zM483.42382021 338.01470993c-37.77654698 37.80743118-99.08401631 37.80743118-136.86056332 0L197.24066931 188.69212126000002 49.33988573 336.59290486l-0.02978151-435.53552212 435.53552214 0L334.10123261 51.80067267000004l149.32258866 149.35237018C521.23014868 238.93069255 521.23014868 300.20727767000005 483.42382021 338.01470993z"  horiz-adv-x="1024" />

    
    <glyph glyph-name="Travel" unicode="&#58887;" d="M991.54165951 834.51217964l-37.20420554 37.20420554c0 0-70.27427516 20.66866779-115.74574671-24.8028037-82.67567702-82.67567702-190.1531519-194.28728778-190.15315184-194.28728779l-524.98798417 78.54154109-66.1401393-62.00600332 392.7077056-227.35735743L305.33645717 305.39005954000004 61.44456786 288.85552766l-45.47147149-16.53553775 243.89188933-136.41441446 132.28027855-248.02602522 20.6686678 45.47147151 16.53553773 231.49048743c0 0 405.10910748 413.3763734 566.32531976 574.59359159C1028.74586504 772.50517038 991.54165951 834.51217964 991.54165951 834.51217964L991.54165951 834.51217964 991.54165951 834.51217964zM598.83395388 288.85552766L784.85296984-66.64897826000004l53.73873742 57.87287329-45.47147147 475.38338265L598.83395388 288.85552766 598.83395388 288.85552766 598.83395388 288.85552766z"  horiz-adv-x="1026" />

    
    <glyph glyph-name="icon_dingding" unicode="&#58965;" d="M905.76634364 513.19414252C904.01107786 505.77540914 899.68059204 494.90150527 893.6041931 481.78691914L893.73513697 481.78691914 893.03988948 480.57243089C857.58851581 404.60259976 765.02710221 255.60657913 765.02710221 255.60657913 765.02710221 255.60657913 764.90862946 255.95805837 764.54385775 256.53862704999995L737.49468649 209.37758098999996 867.85198547 209.37758098999996 618.87553191-122.22157060999996 675.39009167 103.35623386999998 572.81773955 103.35623386999998 608.45929348 252.52171826999995C579.623681 245.55802642000003 545.54097749 235.98020427999995 505.17610607 222.98486750999996 505.17610607 222.98486750999996 450.56957876 190.95627819000003 347.87563737 284.59738063 347.87563737 284.59738063 278.6159191 345.7109176 318.77190298 360.98145609999995 335.85066679 367.47441736999997 401.69026731 375.71222214 453.49086529 382.72612543 523.49571377 392.20352366 566.56051401 397.2215252 566.56051401 397.2215252 566.56051401 397.2215252 350.72833588 393.9891674 299.52633751 402.05436993 248.32122162 410.11957448 183.36704684 495.68605719 169.5306917 570.91213369 169.5306917 570.91213369 148.13079375 612.20786315 215.54795199 592.65680203 282.96510921 573.10574187 562.0211407 516.5488911 562.0211407 516.5488911 562.0211407 516.5488911 199.09272718 627.98679106 174.94301863 655.17312141 150.79642862 682.35944982 103.87503337 803.57601975 109.97949021 878.06147692 109.97949021 878.06147692 112.62641779 896.63027773 131.63503884 891.65307344 131.63503884 891.65307344 399.93812012 768.85798442 583.4023314 701.63748586 766.86654267 634.41698628 926.37434617 600.22616978 905.76634364 513.19414252L905.76634364 513.19414252Z"  horiz-adv-x="1024" />

    
    <glyph glyph-name="cplay1" unicode="&#58906;" d="M512-115.80635287999996C235.93508476-115.80635287999996 12.19364712 107.93508476 12.19364712 384S235.93508476 883.80635288 512 883.80635288s499.80635288-223.74143767 499.80635288-499.80635288S788.06491524-115.80635287999996 512-115.80635287999996zM512 852.56845584C252.2373623 852.56845584 43.43154416 643.7626377 43.43154416 384s208.80581813-468.56845584 468.56845584-468.56845584c259.86025615 0 468.56845584 208.80581813 468.56845584 468.56845584C980.56845584 643.7626377 771.7626377 852.56845584 512 852.56845584zM761.90317645 384L387.04841178 165.33472060999998 387.04841178 602.66527939 761.90317645 384z"  horiz-adv-x="1024" />

    
    <glyph glyph-name="feiquanping" unicode="&#58948;" d="M422.31763834 328.67110239l-342.76389552-0.77075085c-2.0920379 0-4.1840758-1.32128705-5.06493344-3.41332494-0.88085765-2.0920379-0.33032148-4.40429049 1.21118024-5.94579223l111.42854496-110.98811668L33.6390158 54.724244099999964c-2.97289555-2.97289555-4.84471986-7.04686456-4.84471987-11.56126187 0-4.51439728 1.87182321-8.58836629 4.84471987-11.56126183l104.27157359-103.83114424c2.97289555-2.97289555 7.04686456-4.73461196 11.56126186-4.73461198 4.51439728 0 8.58836629 1.87182321 11.56126184 4.73461198l153.59962558 153.04908941L429.25439498-33.36156246999997c1.54150173-1.54150173 3.8537543-2.0920379 5.94579223-1.21118022 2.0920379 0.88085765 3.30321815 2.86278876 3.41332493 5.06493344l0.1101068 341.8830367c0 4.1840758-1.54150173 8.3681516-4.84471986 11.56126187C430.68578992 327.12960067999995 426.50171412 328.67110239 422.31763834 328.67110239zM982.32315407 756.2175863c0 4.51439728-1.87182321 8.58836629-4.84471988 11.56126184l-104.27157359 103.83114422c-2.97289555 2.97289555-7.04686456 4.73461196-11.56126184 4.73461197-4.51439728 0-8.58836629-1.87182321-11.56126187-4.73461197L696.48471133 718.67101196 581.97316292 832.74213098c-1.54150173 1.54150173-3.8537543 1.98193109-5.94579223 1.21118026-2.0920379-0.88085765-3.30321815-2.86278876-3.30321816-5.06493348l-0.1101068-339.02024793c0-4.1840758 1.54150173-8.3681516 4.73461199-11.56126185 3.19311025-3.19311025 7.37718603-4.84471986 11.45115507-4.84471988l342.76389546-1.98193111c2.0920379 0 4.1840758 1.21118023 5.06493348 3.30321815 0.88085765 2.0920379 0.33032148 4.40429049-1.21118024 5.94579221L823.98891653 591.71734294 977.47843419 744.54621765C980.45133089 747.51911319 982.32315407 751.70318902 982.32315407 756.2175863z"  horiz-adv-x="1024" />

    
    <glyph glyph-name="company" unicode="&#58943;" d="M862.49092116 25.749132250000002L862.49092116 743.65196923c-9.16104806 68.00730973-56.04405874 86.22162883-89.67049397 90.31715617L258.61618829 833.9691254c-69.51618824-7.86772363-94.73601465-51.51742322-103.25040052-89.88604803l0.96999332-718.33394512-143.77456604-1.29332443 0-87.83828437 999.09312398-2.58664885-3.55664218 90.42493322L862.49092116 25.749132250000002zM311.64249 710.3488651l138.06238316 0.43110813-0.32333112-148.84008675-138.17016016-0.43110816L311.64249 710.3488651zM450.67486651 466.01832442L450.3515354 317.17823766000004l-138.17016018-0.43110813 0.43110812 148.84008675L450.67486651 466.01832442zM451.75263687 21.330273769999962L310.45694264 20.899165619999962l1.18554736 198.6330774 140.86458611 1.40110147L451.75263687 21.330273769999962zM715.91415216 71.98548072999995L577.74399201 71.55437255000004l0.43110813 148.94786379 138.06238312 0.43110815L715.91415216 71.98548072999995zM715.91415216 317.17823766000004L577.74399201 316.74712953000005l0.43110813 148.84008675 138.06238312 0.43110814L715.91415216 317.17823766000004zM715.91415216 561.93988648L577.74399201 561.5087783199999l0.43110813 148.84008678 138.06238312 0.43110813L715.91415216 561.93988648z"  horiz-adv-x="1024" />

    
    <glyph glyph-name="leftarrow" unicode="&#58888;" d="M339.650693 384.008 774.779894 819.105201c17.567726 17.567726 17.567726 46.11128 0 63.679005-17.631725 17.599725-46.11128 17.599725-63.711005 0L249.252105 420.999422C239.108264 410.85558 235.52432 397.223793 237.060296 384.008c-1.535976-13.215794 2.047968-26.87958 12.19181-36.991422l461.816784-461.816784c17.599725-17.599725 46.07928-17.599725 63.711005 0 17.567726 17.599725 17.567726 46.07928 0 63.711005L339.650693 384.008z"  horiz-adv-x="1024" />

    
    <glyph glyph-name="link" unicode="&#61068;" d="M541.7 230.3 362.9 51.4c-24.7-24.7-57.6-38.4-92.6-38.4-35 0-67.9 13.6-92.6 38.4S139.2 109 139.2 144c0 35 13.6 67.9 38.4 92.6l178.9 178.9c14.1 14.1 14.1 36.9 0 50.9-14.1 14.1-36.9 14.1-50.9 0L126.7 287.6C88.3 249.2 67.2 198.2 67.2 144c0-54.2 21.1-105.2 59.5-143.5 39.6-39.6 91.6-59.4 143.5-59.4 52 0 104 19.8 143.5 59.4l178.9 178.9c14.1 14.1 14.1 36.9 0 50.9S555.8 244.3 541.7 230.3zM899.4 773.2c-79.2 79.2-207.9 79.2-287.1 0L433.4 594.3c-14.1-14.1-14.1-36.9 0-50.9 14.1-14.1 36.9-14.1 50.9 0l178.9 178.9c51.1 51.1 134.2 51.1 185.3 0 24.7-24.7 38.4-57.6 38.4-92.6s-13.6-67.9-38.4-92.6L669.6 358.2c-14.1-14.1-14.1-36.9 0-50.9 7-7 16.2-10.5 25.5-10.5s18.4 3.5 25.5 10.5l178.9 178.9C978.6 565.3 978.6 694.1 899.4 773.2zM486.5 307.5l102 102c14.1 14.1 14.1 36.9 0 50.9-14.1 14.1-36.9 14.1-50.9 0l-102-102c-14.1-14.1-14.1-36.9 0-50.9 7-7 16.2-10.5 25.5-10.5S479.4 300.5 486.5 307.5z"  horiz-adv-x="1024" />

    
    <glyph glyph-name="star" unicode="&#61073;" d="M956 497.5c-10.4 31-36.9 53.3-69.2 58.2L682.1 587 590.5 782c-7.3 15.6-18.9 28.5-33.6 37.4-13.5 8.2-29.1 12.5-44.9 12.5-15.9 0-31.4-4.3-44.9-12.5-14.7-8.9-26.3-21.8-33.6-37.4L341.9 587l-204.7-31.3c-32.3-4.9-58.8-27.2-69.2-58.2-10.4-31-2.6-64.7 20.2-88.1l150.7-154.5-35.6-218c-4.1-25.2 3-50.7 19.5-70.1 16.6-19.5 40.7-30.7 66.2-30.7 14.6 0 29.1 3.8 42 10.9L512 47l181-100.1c12.9-7.1 27.4-10.9 42-10.9 25.5 0 49.6 11.2 66.2 30.7 16.5 19.4 23.6 44.9 19.5 70.1l-35.6 218 150.7 154.5C958.6 432.7 966.3 466.5 956 497.5z"  horiz-adv-x="1024" />

    
    <glyph glyph-name="caretdown" unicode="&#58946;" d="M804.571429 493.714286q0-14.857143-10.857143-25.714286l-256-256q-10.857143-10.857143-25.714286-10.857143t-25.714286 10.857143L230.285714 468q-10.857143 10.857143-10.857143 25.714286t10.857143 25.714285 25.714286 10.857143h512q14.857143 0 25.714286-10.857143t10.857143-25.714285z"  horiz-adv-x="1024" />

    
    <glyph glyph-name="upload" unicode="&#58984;" d="M929.952021 300.709015c-19.812231 0-35.930327-16.123212-35.930327-35.94056l0-202.421222L131.636063 62.347233 131.636063 264.768455c0 19.817348-16.114003 35.94056-35.920094 35.94056-19.823488 0-35.94977-16.123212-35.94977-35.94056l0-238.350526c0-19.817348 16.127306-35.939537 35.94977-35.939537l834.236052 0c19.817348 0 35.939537 16.122189 35.939537 35.939537L965.891558 264.768455C965.891558 284.585803 949.770392 300.709015 929.952021 300.709015zM364.538507 526.901641c9.639544 0 18.693758 3.776 25.495674 10.634198l0.197498 0.199545 86.678128 105.016799 0-407.717935c0-19.841907 16.114003-35.984562 35.920094-35.984562 19.817348 0 35.939537 16.142655 35.939537 35.984562L548.769438 643.895215l87.402629-105.942891 0.381693-0.421602c6.813173-6.854105 15.869433-10.629081 25.50079-10.629081 9.632381 0 18.686594 3.776 25.483394 10.621918 13.990642 14.029528 14.06125 36.815487 0.212848 50.935066L540.700669 766.754381l-0.399089 0.437975c-6.670933 6.6607-15.664771 10.329253-25.322735 10.329253-0.558725 0-1.118474-0.01228-1.677199-0.036839-10.261715 0.448208-19.970844-3.25002-26.997887-10.30367l-0.203638-0.203638L338.842265 588.460672c-13.859659-14.121626-13.788028-36.906561 0.201591-50.924833C345.844749 530.678664 354.899986 526.901641 364.538507 526.901641z"  horiz-adv-x="1024" />

    
    <glyph glyph-name="delete" unicode="&#59503;" d="M864 704h-128V768c0 35.2-28.8 64-64 64H352c-35.2 0-64-28.8-64-64v-64H160c-19.2 0-32-12.8-32-32s12.8-32 32-32h32v-640c0-35.2 28.8-64 64-64h512c35.2 0 64 28.8 64 64V640h32c19.2 0 32 12.8 32 32s-12.8 32-32 32zM352 768h320v-64H352V768z m416-768H256V640h512v-640zM352 544c-19.2 0-32-12.8-32-32v-384c0-19.2 12.8-32 32-32s32 12.8 32 32V512c0 19.2-12.8 32-32 32zM512 544c-19.2 0-32-12.8-32-32v-384c0-19.2 12.8-32 32-32s32 12.8 32 32V512c0 19.2-12.8 32-32 32zM640 512v-384c0-19.2 12.8-32 32-32s32 12.8 32 32V512c0 19.2-12.8 32-32 32s-32-12.8-32-32z"  horiz-adv-x="1024" />

    
    <glyph glyph-name="edit" unicode="&#59655;" d="M908.8 780.8c-32 32-76.8 51.2-124.8 51.2s-92.8-19.2-124.8-51.2c-12.8-12.8-12.8-32 0-44.8l204.8-204.8c6.4-6.4 16-9.6 22.4-9.6s16 3.2 22.4 9.6c32 32 51.2 76.8 51.2 124.8s-19.2 92.8-51.2 124.8zM883.2 601.6l-150.4 150.4c41.6 22.4 96 16 131.2-19.2 35.2-32 41.6-86.4 19.2-131.2zM630.4 694.4c-12.8 12.8-32 12.8-44.8 0l-512-512c-6.4-6.4-9.6-12.8-9.6-22.4v-160c0-35.2 28.8-64 64-64h160c9.6 0 16 3.2 22.4 9.6l512 512c12.8 12.8 12.8 32 0 44.8l-192 192zM275.2 0h-147.2v147.2l147.2-147.2zM320 44.8l-147.2 147.2 435.2 435.2 147.2-147.2-435.2-435.2z"  horiz-adv-x="1024" />

    
    <glyph glyph-name="money" unicode="&#59026;" d="M507.58489149-109.57087138999998C272.11818594-107.93245222999997 102.25723357 37.783375449999994 109.46627793 241.30953029c7.60571428 216.90945255 170.34385488 246.52172336 266.63116296 394.54858438h253.93772593c106.10057661-157.65041788 265.66535795-176.89753158 272.97788145-408.12159379 6.51918367-202.45687075-171.22342727-338.84233235-395.42815678-337.30739227z m150.82079687 257.68022027c0 15.19418205-12.3140136 27.61167477-27.31848395 27.61167478H537.0074506v61.2596307h94.0625073c15.00447037 0 27.31848397 12.4174927 27.31848395 27.52544218v0.10347912c0 15.10794945-12.3140136 27.61167477-27.31848395 27.61167474h-90.42349207l98.9777648 103.78954324a27.90486557 27.90486557 0 0 1-0.86232586 39.04611599 27.26674443 27.26674443 0 0 1-38.66669259-0.75884679l-90.50972465-95.02831227-90.40624555 95.02831227a27.2494979 27.2494979 0 0 1-38.66669257 0.75884679 27.80138646 27.80138646 0 0 1-0.77609329-39.04611599l98.87428569-103.78954324h-93.97627468c-15.10794945 0-27.42196306-12.50372528-27.42196308-27.61167474v-0.10347912c0-15.10794945 12.3140136-27.52544219 27.42196308-27.52544218h97.63253642v-61.2596307h-97.63253642c-15.10794945 0-27.42196306-12.4174927-27.42196308-27.61167478s12.3140136-27.61167477 27.42196308-27.61167475h97.63253642v-60.01788144c0-15.19418205 12.3140136-27.61167477 27.31848398-27.61167477h0.1034791c15.00447037 0 27.31848397 12.4002462 27.31848397 27.61167477v60.01788144h94.0625073a27.57718174 27.57718174 0 0 1 27.33573046 27.61167475z m69.83114999 653.67751214c-12.98662779-10.19269194-12.98662779-10.19269194-39.04611598-31.07822481-26.16296727-20.97176545-65.98517653-75.59148687-65.98517654-75.59148687H390.23958535s-3.84597344 4.70829932-10.96878521 17.50521542c-7.1228118 12.79691611-73.78060253 74.45321671-90.32001296 85.80142534-16.45317785 11.45168772-13.84895367 17.69492713-16.15998704 24.24860381-2.31103337 6.4329511 5.38091351 24.421069 117.44878521 55.58552641 117.63849694 24.04164561 242.19284741 7.20904438 323.47568514-20.86828637 37.49392938-13.76272109 27.49094914-45.49631358 14.52156786-55.60277293z"  horiz-adv-x="1024" />

    
    <glyph glyph-name="shanchu" unicode="&#58939;" d="M401.03003962 32.64417498c24.91162376 0 44.72768811 19.81606435 44.72768811 44.72768811v536.73225733c0 24.91162376-19.81606435 44.72768811-44.72768811 44.72768811s-44.72768811-19.81606435-44.72768811-44.72768811V77.37186309000003c0-24.91162376 19.81606435-44.72768811 44.72768811-44.72768811z m558.81301475 760.37069788H579.94079207v44.72768811c0 24.91162376-19.81606435 44.72768811-44.72768811 44.7276881h-44.72768811c-24.91162376 0-44.72768811-19.81606435-44.72768812-44.7276881v-44.72768811h-379.9022623c-24.91162376 0-44.72768811-19.81606435-44.7276881-44.72768812s19.81606435-44.72768811 44.7276881-44.7276881h66.80844554v-715.64300976c0-49.25707425 40.19830197-89.45537622 89.45537621-89.45537622h581.45994544c49.25707425 0 89.45537622 40.19830197 89.45537621 89.45537622V703.55949664h66.80844554c24.91162376 0 44.72768811 19.81606435 44.72768811 44.7276881 0 24.34545049-19.81606435 44.72768811-44.72768811 44.72768812z m-156.26382175-760.37069788c0-24.91162376-19.81606435-44.72768811-44.72768812-44.7276881h-492.0045692c-24.91162376 0-44.72768811 19.81606435-44.72768812 44.7276881V703.55949664h581.45994544v-670.91532166z m-178.91075244 0c24.91162376 0 44.72768811 19.81606435 44.72768811 44.72768811v536.73225733c0 24.91162376-19.81606435 44.72768811-44.72768811 44.72768811s-44.72768811-19.81606435-44.72768811-44.72768811V77.37186309000003c0-24.91162376 19.81606435-44.72768811 44.72768811-44.72768811z"  horiz-adv-x="1024" />

    
    <glyph glyph-name="right" unicode="&#59024;" d="M300.992 0q15.008 0 27.008 10.016L752 351.008q16 12.992 16 34.016t-16 34.016L329.984 758.048q-14.016 11.008-32 8.992t-29.504-16-9.504-32 16-28.992l380-304.992L272.96 78.048q-14.016-11.008-16-28.992t8.992-32q14.016-16.992 35.008-16.992z"  horiz-adv-x="1024" />

    
    <glyph glyph-name="wenjian" unicode="&#58900;" d="M931.90635556 630.53474865a38.69533314 38.69533314 0 0 1-10.96259019 29.88610889L699.79961016 881.23874526a38.63007965 38.63007965 0 0 1-30.8649116 10.83208312H184.81888628c-41.3707272 0-74.84577931-33.47505214-74.84577929-74.71527228v-859.32351147c0-41.30547367 33.47505214-74.78052579 74.84577929-74.7805258h673.22049266c41.30547367 0 74.78052579 33.47505214 74.7805258 74.7805258V630.53474865h-0.91354918z m-260.81829109 168.94134493l169.13710546-168.94134494h-169.13710546V799.47609358z m187.016568-841.50930246H184.81888628V817.29030259h411.42339887v-224.21107035c0-20.62011006 16.77015282-37.39026292 37.32500938-37.39026289h224.47208441v-597.72217823z"  horiz-adv-x="1024" />

    
    <glyph glyph-name="Phone" unicode="&#58942;" d="M796.49075504 321.00458576999995c-86.79817695 0-161.14735595-59.00959696-182.3519483-140.87764367-141.84711001 52.49163755-254.37335844 164.77997313-307.17103261 306.51389147 82.17303555 21.0044111 141.39643973 95.39655946 141.39643975 182.49029337 0 103.88070249-84.51338054 188.39408302-188.39303527 188.39408302-102.38405597 0-185.95522007-82.08919028-188.34167975-183.91043102a20.96039195 20.96039195 0 0 1-0.66447748-5.23511905c0-84.31634258 15.21381311-168.15476499 45.21906572-249.18540287 29.7180808-80.25925621 72.6796001-154.38729163 127.68870606-220.32673992 57.12621186-68.47892682 140.39238608-131.43765925 234.45999055-177.28032766 102.83577498-50.11460977 211.57743516-76.74716708 314.61548795-77.06682965 1.17069637-0.20018125 2.35606546-0.30184453 3.54457989-0.30184457 103.87965471 0 188.39303527 84.51338054 188.39303427 188.39408304S900.37040975 321.00458576999995 796.49075504 321.00458576999995z"  horiz-adv-x="1024" />

    
    <glyph glyph-name="IT" unicode="&#59224;" d="M748.78837898 490.21024376l-104.11115114-0.18603163a40.63741368 40.63741368 0 0 1-3.56352489 0.18603163c-1.28981381 0-2.55895851-0.07854668-3.81570037-0.19843351l-103.47864708-0.18189704c-18.9834188 0-34.37437341-18.59068641-34.37437341-41.51795965 0-22.93140685 15.39095562-41.51795964 34.37437341-41.51795962l65.80945972 0.11575317 0.33485579-291.24582065c0-23.49776806 18.59482101-42.5431961 41.5303615-42.5431961 22.93967507 0 41.53449609 19.04542899 41.53449609 42.5431961l-0.33072217 291.3905112 66.09057255 0.11575221c18.9834188 0 34.37437341 18.59068641 34.3743734 41.52209423 0 22.92727325-15.39095562 41.51795964-34.3743734 41.51795966z m217.64786783-79.69563159c0 0.87227772-0.20256712 1.68667981-0.26044276 2.53828842l-0.11575221 162.60752945c-1.90164877 43.00207232-37.35500161 77.35577663-81.20868259 77.5335391h-0.03307289l-127.66679581-0.05787663C738.51947401 768.83076809 637.33107448 857.25331435 515.2534738 857.25331435c-122.15201379 0-223.4024235-88.53416586-241.94350254-204.33219078l-129.58911462-0.05787563C100.34672198 650.92852628 65.71603945 615.85963756 65.52587419 572.47310108l0.33072215-571.63570511c1.93472166-43.09715546 37.54516688-77.52527086 81.53940376-77.52527086h43.51055695V-77.03513252000005l650.10353311 0.29351464v0.04960838h43.51055696c45.23444328 0 81.90319786 36.3132287 81.90319783 81.1011986v40.55059879H966.74216427l-0.30591746 365.55482428zM515.69994718 774.882973c76.30573551 0 140.25901924-51.78686461 158.29574825-121.7799524l-316.73618605-0.1405569c17.99125328 70.0716335 82.07269303 121.92050834 158.4404378 121.9205093z m310.6054354-770.33322702l-628.01960025 0.04547377 31.99317831-0.20670074c-12.52194597 0-22.96034517-0.00413364-31.99317831 0.20670074-39.35586713 0.92602069-48.50858711 6.69711185-50.55492644 41.07561986l-0.27284557 476.03236609c1.42623708 40.84411444 9.30981233 48.65327766 50.99726722 50.08778194l67.49613952 0.02480468c0.25217548-0.00413364 0.48781452-0.07441209 0.73998903-0.07441302l444.35750712 0.2521755c1.90578337-0.26871097 3.83637045-0.45474262 5.81243229-0.45474263 1.99259731 0 3.93972083 0.19016527 5.85790602 0.46301084l79.92300238-0.84747401c62.41542905 0 79.9519407-11.64553366 81.5724757-71.77484979l0.29351565-414.44787461c0-0.97976269 0.22323719-1.90164877 0.29351562-2.864876-0.04547377-67.87646911-1.79416479-76.48349795-58.49637829-77.51700262zM357.39593169 490.21024376c-22.93967507 0-41.53449609-19.04956265-41.53449513-42.54319711l0.38032958-332.00312019c0-23.49776806 18.59482101-42.5431961 41.5303615-42.5431961 22.93967507 0 41.53449609 19.04542899 41.53449608 42.5431961l-0.37619596 332.00312019c0 23.49363345-18.59482101 42.5431961-41.53449607 42.54319711z"  horiz-adv-x="1024" />

    
    <glyph glyph-name="setup" unicode="&#58907;" d="M726.660343 479.572208c1.517034 12.136274 2.65481 24.272548 2.65481 37.167339 0 12.894791-1.137776 25.031065-2.65481 37.167338l80.023556 62.577662c7.205913 5.688878 9.102205 15.928859 4.551102 24.272548l-75.851711 131.223461c-4.551103 8.343688-14.791084 11.377757-23.134772 8.343688l-94.435381-37.925856c-19.721445 15.170342-40.959924 27.685875-64.094696 37.167339L539.306616 880.069244a18.507818 18.507818 0 0 1-18.583669 15.92886h-151.703423c-9.481464 0-17.445894-6.826654-18.583669-15.92886l-14.411825-100.503517c-23.134772-9.481464-44.373251-22.376255-64.094697-37.167339l-94.43538 37.925856c-8.722947 3.413327-18.583669 0-23.134772-8.343688l-75.851712-131.223461c-4.930361-8.343688-2.65481-18.583669 4.551103-24.272548L163.082128 553.906885c-1.517034-12.136274-2.65481-24.651806-2.65481-37.167338 0-12.515532 1.137776-25.031065 2.65481-37.167339L83.058572 416.994546c-7.205913-5.688878-9.102205-15.928859-4.551103-24.272547l75.851712-131.223461c4.551103-8.343688 14.791084-11.377757 23.134772-8.343688l94.43538 37.925855c19.721445-15.170342 40.959924-27.685875 64.094697-37.167338l14.411825-100.503518c1.137776-9.102205 9.102205-15.928859 18.583669-15.928859h151.703423c9.481464 0 17.445894 6.826654 18.583669 15.928859l14.411825 100.503518c23.134772 9.481464 44.373251 22.376255 64.094696 37.167338l94.435381-37.925855c8.722947-3.413327 18.583669 0 23.134772 8.343688l75.851711 131.223461c4.551103 8.343688 2.65481 18.583669-4.551102 24.272547l-80.023556 62.577662zM444.871235 383.999052c-73.196901 0-132.740495 59.543593-132.740495 132.740495s59.543593 132.740495 132.740495 132.740495 132.740495-59.543593 132.740495-132.740495-59.543593-132.740495-132.740495-132.740495zM850.905446-4.74096899999995c2.920291 5.688878 5.157916 11.377757 7.205913 17.142487l50.858573 9.215983a9.405612 9.405612 0 0 1 7.585171 9.746945l-4.930362 76.155118a9.936574 9.936574 0 0 1-8.722946 9.102205l-51.844645 5.157917a143.435586 143.435586 0 0 1-20.897147 31.516386l16.194341 48.165836a9.443538 9.443538 0 0 1-4.892436 11.377757l-69.480167 35.422749a9.443538 9.443538 0 0 1-12.136274-2.768587l-29.392538-41.377109a150.831128 150.831128 0 0 1-37.812078-1.630811l-34.626307 38.949853a9.633167 9.633167 0 0 1-12.515532 1.668738l-64.51188-40.732369a9.178057 9.178057 0 0 1-3.413328-11.908719l22.452107-46.535025c-3.451253-5.044139-6.826654-10.353759-9.671093-15.928859a146.355877 146.355877 0 0 1-7.205913-17.180413l-50.858572-9.215983a9.405612 9.405612 0 0 1-7.585171-9.746945l4.930361-76.155118c0.189629-4.778658 4.171844-8.533318 8.722947-9.102205l51.844644-5.157917c5.575101-11.377757 12.477607-21.883219 20.897147-31.516386l-16.19434-48.165836a9.443538 9.443538 0 0 1 4.930361-11.377757l69.442242-35.422749a9.443538 9.443538 0 0 1 12.136273 2.730661l29.392539 41.415035c12.781013-1.137776 25.410323-0.379259 37.812078 1.630812l34.626306-38.949854a9.633167 9.633167 0 0 1 12.515532-1.668738l64.511881 40.732369a9.405612 9.405612 0 0 1 3.413327 11.908719l-22.414181 46.535025c3.413327 5.044139 6.712876 10.202055 9.633167 15.928859z m-160.426369 7.205913c-33.488531 17.066635-47.255616 57.495597-30.644092 90.111833 16.611525 32.616236 57.419746 45.245546 90.908277 28.17891 33.526456-17.066635 47.293542-57.495597 30.682017-90.111833-16.611525-32.616236-57.419746-45.245546-90.908276-28.17891z"  horiz-adv-x="1024" />

    
    <glyph glyph-name="wipe_out" unicode="&#58898;" d="M958.76987124 372.52676141999996H851.98049684V802.23386763c0 39.51893284-32.16429277 71.58516375-71.58516374 71.58516375H245.76202799c-39.51893284 0-71.58516375-32.16429277-71.58516377-71.58516375v-429.70710621h-106.88743622c-30.59530285 0-55.50301738-24.31934331-55.50301738-54.22821308 0-12.3557954 4.41278409-24.41740516 12.2577335-34.02746823 1.66705179-2.35348483 3.62828913-4.51084593 5.78565022-6.37402144l424.90207466-366.75138685c13.92478528-12.9441666 32.16429277-20.10268298 51.48248077-20.102683 19.22012611 0 37.45963364 7.06045447 49.9134909 18.72981684l439.80747858 367.63394366c2.64767043 2.25542297 5.00115526 4.9030934 6.86433078 7.64882572 7.45270199 9.41393935 11.57130043 21.08330166 11.57130044 33.14491141-0.09806187 30.00693165-25.00577635 54.32627495-55.60107924 54.32627497zM656.24900803 426.26466518c19.80849738 0 35.7925819 15.98408451 35.79258188 35.79258186s-15.98408451 35.7925819-35.79258188 35.79258187H548.87126242v3.03991792l105.90681757 105.9068176c14.02284719 14.02284719 14.02284719 36.67513868 0 50.59992393-14.02284719 14.02284719-36.67513868 14.02284719-50.59992396 0L513.07868055 566.39507475l-91.09947553 91.0994755c-14.02284719 14.02284719-36.67513868 14.02284719-50.59992394 0-14.02284719-14.02284719-14.02284719-36.67513868 0-50.59992395l105.90681759-105.90681764v-3.03991788H369.81029117c-19.80849738 0-35.7925819-15.98408451-35.79258188-35.79258188s15.98408451-35.7925819 35.79258188-35.79258186h107.37774564v-53.73790374H369.81029117c-19.80849738 0-35.7925819-15.98408451-35.79258188-35.79258187s15.98408451-35.7925819 35.79258188-35.79258188h107.37774564v-71.58516375c0-19.80849738 15.98408451-35.7925819 35.79258189-35.79258185s35.7925819 15.98408451 35.79258188 35.79258185v71.58516375H656.15094618c19.80849738 0 35.7925819 15.98408451 35.79258187 35.79258188s-15.98408451 35.7925819-35.79258187 35.79258187H548.87126242v53.73790374h107.37774561v-0.09806186z"  horiz-adv-x="1024" />

    
    <glyph glyph-name="xiangshang" unicode="&#58886;" d="M922.311 326.321l-177.042 177.042-31.243-31.243 208.285-208.285 208.285 208.285-31.243 31.243-177.042-177.042zM922.311 326.321z"  horiz-adv-x="1846" />

    
    <glyph glyph-name="Personnel_files" unicode="&#59241;" d="M863.93247787 718.82384594c-8.23726252-32.94905098-42.83376637-59.30829232-77.43027023-59.30829232H241.19540842c-34.59650385 0-69.19300772 26.35924135-77.43027021 59.30829232L135.75844398 824.26081038C127.52118147 857.20986136 147.29061225 883.56910273 181.88711609 883.56910273h665.5708358c34.59650385 0 54.36593464-26.35924135 46.12867213-59.30829235L863.93247787 718.82384594zM924.88822307 764.95251806l-14.82707307-59.30829233c-14.8270731-52.71848175-67.54555481-93.90479618-121.91149042-93.90479618H241.19540842c-54.36593464 0-108.73186927 41.18631443-121.91148947 93.90479618l-16.47452593 59.30829233c-9.88471539-18.12197788-16.47452597-37.89140867-16.47452597-60.95574521v-685.34026656c0-67.54555481 56.01338751-123.55894235 123.55894234-123.55894236h606.26254442c67.54555481 0 123.55894235 56.01338751 123.55894234 123.55894236V705.64422573c1.64745288 21.41688365-4.9423577 41.18631443-14.82707308 59.30829233zM514.67253449 339.90975638c-46.12867212 0-84.0200808 37.89140867-84.02008082 84.0200808s37.89140867 84.0200808 84.02008082 84.02008082 84.0200808-37.89140867 84.02008077-84.02008083-37.89140867-84.0200808-84.02008077-84.02008079zM514.67253449 423.92983718m-29.65414616-1e-8a29.65414615 29.65414615 0 1 1 59.30829233 0 29.65414615 29.65414615 0 1 1-59.30829233 0Z"  horiz-adv-x="1024" />

    
    <glyph glyph-name="supplier" unicode="&#58915;" d="M765.16401823 589.5056382800001c0 3.8306972 0.11266756 7.54872685 0.45067025 11.26675649h-0.90134051c0.33800269-3.71802963 0.45067024-7.54872685 0.45067026-11.26675649z m-252.15001014 0c0 3.8306972 0.11266756 7.54872685 0.45067025 11.26675649h-0.90134053c0.33800269-3.71802963 0.45067024-7.54872685 0.45067028-11.26675649zM7.24930945 592.66033011C7.24930945 519.0884102699999 63.69575946 459.48726846 133.32431452 459.48726846c69.62855507 0 126.07500504 59.6011418 126.07500508 133.17306165 0 2.92935669-0.11266756 5.85871338-0.3380027 7.99939711H7.58731216c0 0.11266756-0.33800269-2.92935669-0.33800271-7.99939711 0 0.11266756 0 0 0 0z m1009.27604597 8.11206466H765.61468848c-0.33800269-3.71802963-0.45067024-7.43605929-0.45067025-11.26675649 0 3.8306972-0.11266756 7.54872685-0.45067026 11.26675649h-251.24866963c-0.33800269-3.71802963-0.45067024-7.43605929-0.45067025-11.26675649 0 3.8306972-0.11266756 7.54872685-0.45067028 11.26675649h-251.24866961c-0.33800269-3.71802963-0.45067024-7.43605929-0.45067025-11.26675649 0-73.57191985 56.44644999-133.17306166 126.07500506-133.17306163 69.62855507 0 126.07500504 59.6011418 126.07500508 133.17306163 0-73.57191985 56.44644999-133.17306166 126.07500507-133.17306163S765.16401823 515.8210508899999 765.16401823 589.39297073c0-73.57191985 56.44644999-133.17306166 126.07500507-133.17306166 69.62855507 0 126.07500504 59.6011418 126.07500506 133.17306166 0 5.07004043-0.78867294 11.37942404-0.78867294 11.37942404z m-503.06067708 0h503.06067708s-0.45067024 1.23934321-1.23934322 3.4926945c-5.85871338 16.67479959-31.65958574 90.47205459-55.09443921 149.62252614C938.10873028 809.88339514 891.577026 835.79693506 839.97528128 835.79693506H184.92605923c-59.15047156 0-105.00617044-37.85630179-119.08961606-76.2759414C43.41559777 698.34250594 14.57270117 620.15121592 8.60132025 603.92708659c-0.78867294-2.02801616-1.12667566-3.04202424-1.12667567-3.04202424H513.46467834v-0.11266758z m445.26221632-287.97829575V-10.336476980000043c0-32.44825869-25.9135399-58.69980131-57.68579322-58.6998013H121.60688778c-31.88492086 0-57.68579322 26.2515426-57.68579322 58.6998013V312.79409902h894.8058001z"  horiz-adv-x="1024" />

    
    <glyph glyph-name="welfare" unicode="&#59133;" d="M435.08832976 594.64108931H76.15920612c-28.31582998 0-51.27572616-22.95989618-51.27572617-51.2757262v-128.18931538c0-28.3167895 22.95893666-51.27476666 51.27572617-51.27476668h358.93008313c28.31487048 0 51.27668567 22.95797715 51.27668567 51.27572618v128.18931541c-0.00191899 28.31582998-22.96277467 51.27380717-51.27764516 51.27380715z m0-282.01553442h-307.65435699c-28.31582998 0-51.27572616-22.95797715-51.27572618-51.27284767v-307.65339747c0-28.31870849 24.81269234-51.27764516 53.12852235-51.27764516h304.87180449c28.317749 0 51.27764516 22.95893666 51.27764516 51.27764516l0.92687785 307.65339747c0.0009595 28.31487048-22.95989618 51.27284764-51.27572618 51.27284767zM280.78619834 875.72878636c-29.3175489 0.92591833-84.82467386-26.41409929-102.07553989-50.34884833-62.26680855-86.45102783-16.04957097-205.10290468 179.46504154-205.10290464 83.82199548 0 153.8252595 73.00842072 153.82525951 102.55145232 0 29.56989762-95.09037361 148.64587381-231.21476116 152.90030065z m158.33491352-152.34858767c-3.10590429-18.85419196-38.53355467-43.86454149-105.18240367-43.8645415-75.78809473 0-133.94632059 36.17702058-129.59018666 94.58855467 2.57913833 34.52667908 49.87389541 48.12088731 76.43863631 48.12088732 125.28202778 0.0009595 159.43450156-92.18500499 158.33395402-98.84490049z m508.72064155-128.7400689H588.91550824c-28.3167895 0-51.27764516-22.95893666-51.27764515-51.27476668v-128.18931538c0-28.3167895 22.96085567-51.27476666 51.27764515-51.27476668H947.84367239c28.3167895 0 51.27572616 22.95797715 51.27572616 51.27572618v128.18931541c-0.00287851 28.31582998-22.95989618 51.27380717-51.27668566 51.27380715z m-286.29778678 25.63786308c190.08095913 0 235.0201416 118.6499578 174.48043459 205.10290465-16.74904707 23.93474904-70.72672768 51.27572616-99.24309334 50.34788884C604.46134125 871.47244051 512.0009595 752.3974238000001 512.0009595 722.83040471c0-29.5430316 68.05067976-102.55145232 149.54300713-102.55145235zM736.78226738 822.22701819c25.83935826 0 71.80424713-13.59420823 74.33445092-48.1208873 4.2323583-58.41153409-52.32925809-94.58855467-125.98630143-94.58855466-64.82099984 0-99.24693134 25.01130901-102.27703508 43.86454147-1.05065342 6.65893599 32.14903594 98.84490049 153.92888559 98.84490049z m159.78375985-509.60050377H588.91550824c-28.3167895 0-51.27764516-22.95797715-51.27764515-51.27284768v-307.65339749c0-28.31870849 23.886774-51.27764516 52.20164448-51.27764516h304.8718045c28.319668 0 51.27860467 22.95893666 51.27860466 51.27764519l1.85279616 307.65339746c-0.0009595 28.31487048-22.95989618 51.27284764-51.27764518 51.27284768z"  horiz-adv-x="1024" />

    
    <glyph glyph-name="Financial_affairs" unicode="&#58995;" d="M127.77977565 803.14933565H896.22022435c28.57836383 0 47.63060633 19.05224252 47.63060633 44.45523258S921.62321439 892.0598008 896.22022435 892.0598008H127.77977565c-25.40299006 0-44.45523256-19.05224252-44.45523255-44.45523257s19.05224252-44.45523256 44.45523255-44.45523258zM416.73878734 399.87686877z m555.69040712 311.186628h-920.85838892C22.99244175 711.06349677 3.9401992 692.01125424 3.9401992 666.60826419v-739.86208491c0-28.57836383 19.05224252-50.80598007 47.63060634-50.80598008h920.85838892c28.57836383 0 47.63060633 22.22761629 47.63060634 50.80598008V666.60826419c0 25.40299006-19.05224252 44.45523256-47.63060634 44.45523258zM670.76868776 247.45892856c28.57836383 0 47.63060633-19.05224252 47.63060631-44.45523257 0-22.22761629-19.05224252-44.45523256-47.63060631-44.45523258h-114.3134552v-107.96270767c0-28.57836383-19.05224252-50.80598007-44.45523256-50.80598009s-44.45523256 22.22761629-44.45523256 50.80598009V161.72383717000002H353.23131224c-28.57836383 0-47.63060633 19.05224252-47.63060631 44.45523255s19.05224252 44.45523256 47.63060631 44.45523257h114.3134552v63.50747508H353.23131224c-28.57836383 0-47.63060633 19.05224252-47.63060631 44.45523257 0 22.22761629 19.05224252 44.45523256 47.63060631 44.45523258h63.5074751l-22.22761626 44.45523255-28.57836381 53.98135385c-12.701495 22.22761629-6.35074753 53.98135382 15.87686881 63.50747509 19.05224252 9.52612123 47.63060633 0 60.33210129-22.22761625l22.2276163-44.45523258v-3.17537376l22.22761628-44.45523256 22.22761632-47.63060634 22.22761625 47.63060634 22.22761629 44.45523256v3.17537376L575.50747507 542.7686877599999c12.701495 22.22761629 41.27985881 34.9291113 60.33210138 22.22761625 19.05224252-9.52612123 28.57836383-41.27985881 15.87686877-63.50747509l-15.87686877-53.98135384-22.22761631-47.63060631h60.33210135c28.57836383 0 47.63060633-19.05224252 47.63060632-44.4552326s-19.05224252-44.45523256-47.63060632-44.45523253h-114.31345516v-63.50747508H670.76868776z"  horiz-adv-x="1024" />

    
    <glyph glyph-name="Office" unicode="&#59418;" d="M902.19057669 680.53909454H684.41142188V789.4286719199999c0 24.95410519-20.41752685 43.10236809-43.10236808 43.10236813h-258.61615806c-24.95410519 0-43.10236809-20.41655207-43.10236809-43.10236813v-108.89152692H121.80942331c-47.63992119 0-86.20473618-38.56481498-86.20473622-86.20473618v-564.86931301c0-47.63992119 38.56481498-86.20571094 86.20473622-86.20571094h780.38310295c47.63992119 0 86.20473618 38.56578974 86.20473617 86.20571094v564.86931301c0 47.63992119-38.56481498 86.20571094-86.20473617 86.20571096z m-260.88249765 0h-258.61615808V789.4286719199999h260.88444724v-108.89152692z"  horiz-adv-x="1024" />

    
    <glyph glyph-name="pause" unicode="&#58938;" d="M371.41279966-87.38061287000005H208.77270515V869.16367173h162.64009451v-956.5442846zM815.22729485 869.16367173h-162.64009451v-956.5442846H815.22729485V869.16367173z"  horiz-adv-x="1024" />

    
    <glyph glyph-name="switch" unicode="&#59172;" d="M112.64 478.208h793.6c17.92 0 31.744 14.336 31.744 31.744 0 12.8-7.68 23.552-18.432 28.672-0.512 0.512-1.024 1.024-1.024 1.536l-241.664 241.664c-12.288 12.288-32.768 12.288-45.056 0-12.288-12.288-12.288-32.768 0-45.056l195.072-195.072H112.64c-17.92 0-31.744-14.336-31.744-31.744s13.824-31.744 31.744-31.744zM911.36 289.79200000000003H117.76c-17.92 0-31.744-14.336-31.744-31.744 0-12.8 7.68-23.552 18.432-28.672 0.512-0.512 1.024-1.024 1.024-1.536l241.664-241.664c6.144-6.144 14.336-9.216 22.528-9.216s16.384 3.072 22.528 9.216c12.288 12.288 12.288 32.768 0 45.056l-195.072 195.072H911.36c17.92 0 31.744 14.336 31.744 31.744s-13.824 31.744-31.744 31.744z"  horiz-adv-x="1024" />

    
    <glyph glyph-name="information" unicode="&#59075;" d="M1011.52536093 627.9542460299999c3.53556878-13.63719389 5.55589379-28.28455026 5.55589378-42.93190665v-402.04467876c0-92.93495086-75.25710696-168.19205783-168.19205781-168.19205783H175.1108031C82.17585222 14.785602789999984 6.91874529 90.04270975999998 6.91874529 182.97766062000005V585.02233938c0 15.15243763 2.02032502 29.29471277 5.55589378 42.93190665l411.64122261-285.37090893c57.07418177-42.4268254 120.20933862-40.40650037 175.76827665 1e-8l411.6412226 285.37090892z m-162.63616403 125.26015118H175.1108031c-62.12499434 0-115.66360733-33.33536281-144.95832013-83.33840702L432.19716175 394.10162508c51.01320672-41.92174414 105.05690098-41.41666289 159.60567649 0l402.04467878 275.7743651c-29.29471277 50.00304421-83.33840701 83.33840701-144.95832012 83.33840703z"  horiz-adv-x="1024" />

    
    <glyph glyph-name="zhongxinbofang" unicode="&#59003;" d="M347.02934026 186.13831504999996V609.1325649c0 19.09207936 18.08204637 33.33107495 36.09018804 22.08522402 14.34985267-8.99175338 290.29814202-196.18035037 314.78527302-211.61414071 16.13588608-10.18654814 15.87721959-34.41501267 0-44.57692492-17.70020538-11.44293018-294.70779555-198.31127243-315.58590835-210.93668089-15.21207624-9.2134675-35.27723524 1.03466791-35.27723524 22.07290756z m718.20706193 414.98789358a1355.37748636 1355.37748636 0 0 1-50.79724776-163.82235604c-12.25588296-51.03127933-39.68688978-63.97694157-81.03663749-41.75622457 0 0-110.73405834 62.2771303-155.08926914 82.42851245q-77.6739683 35.30187017 22.88585933 73.72005948c19.79417508 7.56292704 38.80003131 17.02274356 58.42176208 25.06605221C791.87478256 712.95652212 656.27175125 806.98809063 497.80749449 806.98809063c-226.01326417 0-409.27258822-189.39342473-409.27258723-423.00656729s183.2716415-423.04351967 409.28490468-423.04351868c119.47946268 0 226.03789907 53.81502831 300.8542137 138.17738165 0 0 20.52090572 15.63086959 33.0724085 15.63087056 18.84572934 0 33.7745042-14.23899559 36.3981243-32.60434435 0 0 0.55428629-18.62401521-5.86311576-26.29779932a36.95241061 36.95241061 0 0 0-6.39276718-7.53829214c-88.62419942-101.60681299-215.27242972-166.77854833-358.06886356-166.77854833C229.52067277-118.47272726999995 12.06805116 106.48123410000005 12.06805116 383.96920588c0 56.24156921 10.97486602 109.34218434 27.44332429 159.83149585a39.77311194 39.77311194 0 0 0 3.58438332 12.36674C111.34686189 748.49242387 288.21341877 886.47272727 497.83213038 886.47272727c190.36650438 0 353.21577978-114.24453792 432.62651073-279.24937029 22.72573248 10.05105617 46.11660931 18.67328503 68.60831022 29.42643595q97.30801553 46.47381541 66.1571334-35.44967958z"  horiz-adv-x="1080" />

    
    <glyph glyph-name="software" unicode="&#59399;" d="M971.12119382 719.67602631V507.43403733c0-68.05010859-55.39505893-123.43403733-123.44516751-123.43403733H635.43403733c-68.05010859 0-123.43403733 55.38392873-123.43403733 123.43403733V719.68715652c0 68.05010859 55.38392873 123.43403733 123.43403733 123.4340373H847.68715652c68.05010859 0 123.43403733-55.38392873 123.4340373-123.4340373z m-367.29695505-701.9601322a62.29578962 62.29578962 0 0 1 62.24013858-62.21787817h212.21972854a62.29578962 62.29578962 0 0 1 62.21787817 62.21787817V229.93562265000003a62.29578962 62.29578962 0 0 1-62.21787817 62.24013858H666.06437735a62.29578962 62.29578962 0 0 1-62.24013858-62.24013858v-212.21972854zM1001.72927341 229.93562265000003v-212.21972854C1001.72927341-50.34534468000004 946.34534468-105.72927341000002 878.28410589-105.72927341000002H666.06437735c-68.0612388 0-123.45629775 55.38392873-123.45629774 123.44516752V229.93562265000003c0 68.0612388 55.39505893 123.45629775 123.45629774 123.45629774h212.21972854C946.34534468 353.39192039 1001.72927341 297.99686146 1001.72927341 229.93562265000003z m-489.72927341 30.6080796v-212.21972856c0-68.05010859-55.38392873-123.43403733-123.44516753-123.43403733H176.31284348c-68.05010859 0-123.43403733 55.38392873-123.4340373 123.43403733V260.56596267c0 68.05010859 55.38392873 123.43403733 123.4340373 123.43403733H388.56596267C456.61607127 384 512 328.61607127 512 260.56596267zM83.48688574 538.06437735a62.30691985 62.30691985 0 0 1 62.22900837-62.24013858H357.95788309a62.30691985 62.30691985 0 0 1 62.21787814 62.24013858V750.2952361a62.29578962 62.29578962 0 0 1-62.21787814 62.21787816H145.7047639a62.29578962 62.29578962 0 0 1-62.21787816-62.21787816V538.04211691zM481.39192039 750.2952361V538.04211691c0-68.07236903-55.39505893-123.43403733-123.44516753-123.4340373H145.7047639C77.65465532 414.60807961 22.27072659 469.98087813 22.27072659 538.04211691V750.2952361C22.27072659 818.34534468 77.65465532 873.72927341 145.71589411 873.72927341h212.21972854c68.0612388 0 123.45629775-55.38392873 123.45629774-123.44516752z"  horiz-adv-x="1024" />

    
    <glyph glyph-name="ellipsis" unicode="&#59236;" d="M128 384q0-27.008 18.496-45.504T192 320t45.504 18.496T256 384t-18.496 45.504T192 448t-45.504-18.496T128 384z m320 0q0-27.008 18.496-45.504T512 320t45.504 18.496T576 384t-18.496 45.504T512 448t-45.504-18.496T448 384z m320 0q0-27.008 18.496-45.504T832 320t45.504 18.496T896 384t-18.496 45.504T832 448t-45.504-18.496T768 384z"  horiz-adv-x="1024" />

    
    <glyph glyph-name="deploy" unicode="&#58918;" d="M511.999716 636.871255c-74.410625 0-134.712814 58.026634-134.712814 129.592817C377.286902 837.973366 437.58909 896 511.999716 896c74.410625 0 134.712814-58.026634 134.712814-129.535928 0-71.566182-60.302189-129.592817-134.712814-129.592817z m0 51.825749c44.657753 0 80.839066 34.815981 80.839066 77.767068 0 42.894198-36.181313 77.710179-80.839066 77.710179s-80.839066-34.815981-80.839067-77.710179c0-42.951087 36.181313-77.767068 80.839067-77.767068zM134.712814-36.806593C60.302189-36.806593 0 21.220042 0 92.786224c0 71.509294 60.302189 129.535928 134.712814 129.535928 74.410625 0 134.769703-58.026634 134.769703-129.535928 0-71.566182-60.302189-129.592817-134.769703-129.592817z m0 51.825749c44.657753 0 80.839066 34.815981 80.839066 77.767068 0 42.894198-36.181313 77.710179-80.782177 77.710179-44.657753 0-80.895955-34.815981-80.895955-77.710179 0-42.951087 36.238202-77.767068 80.839066-77.767068z m754.573803-51.76886c-74.410625 0-134.769703 57.969746-134.769703 129.535928 0 71.509294 60.302189 129.535928 134.769703 129.535928 74.410625 0 134.712814-58.026634 134.712814-129.535928 0-71.566182-60.302189-129.592817-134.712814-129.592817z m0 51.76886c44.600864 0 80.782177 34.815981 80.782177 77.767068 0 42.894198-36.181313 77.710179-80.782177 77.710179-44.657753 0-80.839066-34.815981-80.839066-77.710179 0-42.951087 36.181313-77.767068 80.782177-77.767068zM316.415824 750.250748a27.477318 27.477318 0 0 0 36.067536-11.719105 25.486208 25.486208 0 0 0-12.174216-34.702203 409.770439 409.770439 0 0 1-232.504759-370.687794c0-19.342211 1.308444-38.456868 3.925331-57.343968a26.168874 26.168874 0 0 0-23.153765-29.070206 26.737763 26.737763 0 0 0-30.264872 22.243543 468.081518 468.081518 0 0 0-4.437331 64.170631 461.368633 461.368633 0 0 0 262.485187 417.109102z m-33.450648-816.582658a25.37243 25.37243 0 0 0-9.102217 35.612425 27.591096 27.591096 0 0 0 36.977757 8.760884A398.222001 398.222001 0 0 1 511.999716-76.230571a398.222001 398.222001 0 0 1 193.706559 49.948417 27.534207 27.534207 0 0 0 36.80709-9.500439 25.37243 25.37243 0 0 0-9.898661-35.38487A453.802415 453.802415 0 0 0 511.999716-127.999431a453.802415 453.802415 0 0 0-229.03454 61.667521z m681.244066 325.461153a26.794652 26.794652 0 0 0-30.719983-21.617766 26.055097 26.055097 0 0 0-22.527987 29.582206c3.47022 21.617766 5.233775 43.747531 5.233775 66.047963 0 158.151023-89.258617 299.804278-226.815874 367.957129a25.429319 25.429319 0 0 0-11.605327 34.872869 27.477318 27.477318 0 0 0 36.295091 11.207105 461.368633 461.368633 0 0 0 255.999857-414.037103c0-24.917319-1.934221-49.663972-5.859552-73.955514z"  horiz-adv-x="1024" />

    
    <glyph glyph-name="data" unicode="&#58919;" d="M128 204.8v-256h153.6v256h-153.6z m204.8 51.2v-358.4h-256v358.4h256z m102.4-307.2h153.6v512h-153.6v-512z m204.8 563.2v-614.4h-256v614.4h256z m102.4-563.2h153.6v870.4h-153.6v-870.4z m204.8 921.6v-972.8h-256V870.4h256z"  horiz-adv-x="1024" />

    
    <glyph glyph-name="knowledge" unicode="&#58920;" d="M764.604632 305.098105a53.948632 53.948632 0 0 0 0-27.809684l1.077894-1.077895-1.94021-1.94021c-5.389474-16.168421-18.108632-28.941474-34.277053-34.277053l-1.886316-1.886316-1.024 1.024a53.948632 53.948632 0 0 0-66.074947 66.074948L504.885895 460.746105a80.842105 80.842105 0 1 0 38.103579 38.103579l155.648-155.594105a53.948632 53.948632 0 0 0 27.917473 0l68.661895 68.661895a53.948632 53.948632 0 0 0 52.062316 67.907368 53.894737 53.894737 0 1 0-13.904842-106.010947l-68.769684-68.71579z m188.954947 84.668632a24.252632 24.252632 0 0 0 0 0.269474c0 227.328-166.103579 410.677895-369.556211 410.677894-203.452632 0-369.502316-183.349895-369.502315-410.677894a23.983158 23.983158 0 0 0-0.431158-4.527158 23.821474 23.821474 0 0 0-5.551158-16.276211l-94.531369-113.232842 113.825685-39.181474V-25.6h277.557894a24.144842 24.144842 0 0 0 27.055158-23.875368v-23.713685h421.133474v462.95579z m48.505263 9.539368a24.144842 24.144842 0 0 0 0.053895-2.048v-494.48421a24.144842 24.144842 0 0 0-24.252632-24.090948H508.065684c-13.419789 0-24.252632 10.778947-24.252631 24.090948v23.498105H179.2v256.323368l-147.240421 50.661053 133.928421 160.498526C167.720421 644.850526 353.549474 848.788211 584.003368 848.788211c228.729263 0 413.534316-200.919579 418.007579-449.482106z"  horiz-adv-x="1024" />

    
    <glyph glyph-name="BotFramework" unicode="&#58922;" d="M929.848889 640V783.246222c0 0.284444-831.488 0.455111-831.488 0.455111-0.341333 0-0.512-831.544889-0.512-831.544889 0-0.284444 831.544889-0.455111 831.544889-0.455111 0.227556 0 0.341333 378.026667 0.398222 624.298667H320V640h609.848889zM33.848889 783.246222C33.848889 818.858667 62.577778 847.644444 98.417778 847.644444h831.032889c35.612444 0 64.455111-28.728889 64.455111-64.455111v-831.089777c0-35.612444-28.728889-64.455111-64.455111-64.455112H98.360889a64.398222 64.398222 0 0 0-64.512 64.455112V783.246222z m670.151111-463.246222H768v-384h-64v384z m-608.028444-256a31.971556 31.971556 0 1 0 0 64h320a31.971556 31.971556 0 1 0 0-64H96.028444z m288.085333 133.461333a96.028444 96.028444 0 1 0 63.943111-0.113777v-101.319112a31.971556 31.971556 0 1 0-64 0v101.262223l0.056889 0.170666z m17.635555-4.380444c3.982222-0.682667 8.704-1.137778 14.336-1.137778a87.608889 87.608889 0 0 1 0 0.056889c-4.892444 0-9.671111 0.341333-14.336 1.080889zM288.028444 512a95.971556 95.971556 0 1 0 0 192 95.971556 95.971556 0 0 0 0-192z m0 64a32.028444 32.028444 0 1 1 0 64 32.028444 32.028444 0 0 1 0-64z m96.028445-378.538667c0.967111 0.967111 6.087111-2.56 17.635555-4.380444a95.345778 95.345778 0 0 0-17.635555 4.380444z m55.978667-2.446222c5.006222 1.422222 7.566222 2.730667 7.964444 2.446222-2.616889-0.910222-5.290667-1.706667-7.964444-2.446222z m-24.064 60.984889a31.971556 31.971556 0 1 1 0 64 31.971556 31.971556 0 0 1 0-64z m320 0a96.028444 96.028444 0 1 0 0 192 96.028444 96.028444 0 0 0 0-192z m0 64a31.971556 31.971556 0 1 1 0 64 31.971556 31.971556 0 0 1 0-64z"  horiz-adv-x="1024" />

    
    <glyph glyph-name="up" unicode="&#58923;" d="M878.953 574.328l366.966-367.067c9.118-9.118 21.717-14.758 35.628-14.758 27.828 0 50.387 22.56 50.387 50.388 0 13.914-5.64 26.511-14.758 35.629l-402.594 402.594c-9.09 9.182-21.696 14.87-35.629 14.87s-26.542-5.687-35.627-14.864l-402.599-402.599c-9.118-9.118-14.758-21.717-14.758-35.629 0-27.828 22.56-50.388 50.387-50.388 13.915 0 26.511 5.64 35.629 14.758l366.966 367.067z"  horiz-adv-x="1843" />

    
    <glyph glyph-name="hover" unicode="&#58924;" d="M512 896c281.6 0 512-230.4 512-512s-230.4-512-512-512-512 230.4-512 512 230.4 512 512 512z m0-950.869333c241.408 0 438.869333 197.461333 438.869333 438.869333C950.869333 625.408 753.408 822.869333 512 822.869333 270.592 822.869333 73.130667 625.408 73.130667 384c0-241.408 197.461333-438.869333 438.869333-438.869333zM621.738667 164.693333c21.930667 0 36.522667-14.677333 36.522666-36.608s-14.592-36.608-36.522666-36.608H402.261333c-21.930667 0-36.522667 14.677333-36.522666 36.608s14.592 36.608 36.522666 36.608h73.130667V384h-36.522667c-21.930667 0-36.608 14.592-36.608 36.608 0 21.930667 14.677333 36.522667 36.608 36.522667H512c21.930667 0 36.608-14.592 36.608-36.522667v-256h73.130667zM438.869333 610.730667a73.130667 73.130667 0 1 0 146.261334 0 73.130667 73.130667 0 0 0-146.261334 0z"  horiz-adv-x="1024" />

    
    <glyph glyph-name="popup" unicode="&#58925;" d="M85.333333 640.256v-512.512C85.333333 33.621333 161.621333-42.666667 255.744-42.666667h512.512A170.410667 170.410667 0 0 1 938.666667 127.744V640.256A170.410667 170.410667 0 0 1 768.256 810.666667H255.744A170.410667 170.410667 0 0 1 85.333333 640.256z m-85.333333 0A255.744 255.744 0 0 0 255.744 896h512.512A255.744 255.744 0 0 0 1024 640.256v-512.512A255.744 255.744 0 0 0 768.256-128H255.744A255.744 255.744 0 0 0 0 127.744V640.256z m450.816 50.773333l19.626667-436.906666h67.413333l19.626667 436.906666h-106.666667z m52.906667-487.253333c-17.066667 0-31.573333-5.12-43.52-17.066667-12.8-11.093333-18.773333-25.6-18.773334-43.52 0-17.066667 5.973333-31.573333 18.773334-43.52 11.946667-11.946667 26.453333-17.92 43.52-17.92s32.426667 5.973333 45.226666 17.066667c11.946667 11.946667 17.92 26.453333 17.92 44.373333 0 17.92-5.973333 32.426667-17.92 43.52a61.098667 61.098667 0 0 1-45.226666 17.066667z"  horiz-adv-x="1024" />

    
    <glyph glyph-name="questionmark" unicode="&#58926;" d="M512 896c281.6 0 512-230.4 512-512s-230.4-512-512-512-512 230.4-512 512 230.4 512 512 512z m0-950.869333c241.408 0 438.869333 197.461333 438.869333 438.869333C950.869333 625.408 753.408 822.869333 512 822.869333 270.592 822.869333 73.130667 625.408 73.130667 384c0-241.408 197.461333-438.869333 438.869333-438.869333zM319.488 488.106667c1.109333 40.96 5.973333 72.106667 14.506667 93.44s22.186667 40.362667 40.96 57.173333c18.773333 16.725333 39.68 29.098667 62.72 37.12 23.04 7.936 47.36 11.946667 72.96 11.946667 51.712 0 94.805333-15.274667 129.28-45.653334 34.389333-30.464 51.626667-70.997333 51.626666-121.6 0-22.784-4.437333-43.434667-13.226666-61.866666-8.874667-18.517333-27.648-41.557333-56.32-69.12a766.293333 766.293333 0 0 1-57.173334-58.88c-9.386667-11.690667-16.554667-25.6-21.333333-41.813334-4.864-16.213333-6.997333-37.973333-6.4-65.28h-75.093333c0 31.829333 2.56 57.258667 7.68 76.373334 5.12 19.029333 12.8 35.669333 23.04 49.92 10.24 14.165333 28.672 35.072 55.466666 62.72 26.709333 27.562667 43.946667 47.616 51.626667 60.16 7.68 12.458667 11.52 31.146667 11.52 55.893333a93.866667 93.866667 0 0 1-26.453333 65.706667c-17.664 19.029333-43.264 28.586667-76.8 28.586666-75.690667 0-113.493333-44.970667-113.493334-134.826666h-75.093333z m222.208-386.133334h-82.773333v87.04h82.773333v-87.04z"  horiz-adv-x="1024" />

    
    <glyph glyph-name="administrative" unicode="&#58908;" d="M350.7497986 861.92575077h238.96287442v-955.85150154H350.7497986zM654.07334133 819.07174138l231.79398908 57.98832439 231.95329754-927.3352638-231.79398904-57.90867016zM32.13263143 861.92575077h238.96287537v-955.85150154H32.13263143z"  horiz-adv-x="1128" />

    
    <glyph glyph-name="BOT" unicode="&#58927;" d="M102.4 42.667c-27.307 0-50.062 22.755-50.062 50.062v63.715c0 27.307 22.755 50.062 50.062 50.062s50.062-22.755 50.062-50.062v-59.165c0-27.307-22.755-54.613-50.062-54.613zM102.4 19.911c-40.96 0-72.818 31.858-72.818 72.818v63.715c0 40.96 31.858 72.818 72.818 72.818s72.818-31.858 72.818-72.818v-59.165c0-40.96-31.858-77.369-72.818-77.369zM102.4 188.302c-18.205 0-27.307-13.653-27.307-27.307v-59.165c-4.551-22.755 9.102-36.409 27.307-36.409s27.307 13.653 27.307 27.307v63.715c0 18.205-13.653 31.858-27.307 31.858zM921.6 42.667c-27.307 0-50.062 22.755-50.062 50.062v63.715c0 27.307 22.755 50.062 50.062 50.062s50.062-22.755 50.062-50.062v-59.165c4.551-27.307-18.205-54.613-50.062-54.613zM921.6 19.911c-40.96 0-72.818 31.858-72.818 72.818v63.715c0 40.96 31.858 72.818 72.818 72.818s72.818-31.858 72.818-72.818v-59.165c4.551-40.96-31.858-77.369-72.818-77.369zM921.6 188.302c-18.205 0-27.307-13.653-27.307-27.307v-59.165c0-18.205 13.653-27.307 27.307-27.307s27.307 13.653 27.307 27.307v54.613c4.551 18.205-9.102 31.858-27.307 31.858zM307.2 229.262c0 27.307 22.755 50.062 50.062 50.062h304.925c27.307 0 50.062-22.755 50.062-50.062s-22.755-50.062-50.062-50.062h-304.925c-27.307-4.551-50.062 18.205-50.062 50.062zM666.738 151.893h-309.475c-40.96 0-72.818 31.858-72.818 72.818s31.858 72.818 72.818 72.818h304.925c40.96 0 72.818-31.858 72.818-72.818s-27.307-72.818-68.267-72.818zM357.262 256.569c-18.205 0-27.307-13.653-27.307-27.307s13.653-27.307 27.307-27.307h304.925c18.205 0 27.307 13.653 27.307 27.307s-13.653 27.307-27.307 27.307h-304.925zM275.024 739.35l109.363-250.22-41.733-18.205-109.317 250.175zM894.293-39.253h-764.587v209.351c0 209.351 172.942 382.293 382.293 382.293s382.293-172.942 382.293-382.293v-209.351zM175.218 6.258h673.565v163.84c0 186.595-150.187 336.782-336.782 336.782s-336.782-150.187-336.782-336.782v-163.84zM197.973 729.885c0 0 0 0 0 0 0-30.162 24.451-54.613 54.613-54.613 30.162 0 54.613 24.451 54.613 54.613 0 0 0 0 0 0 0 30.162-24.451 54.613-54.613 54.613-30.162 0-54.613-24.451-54.613-54.613zM252.587 652.515c-40.96 0-77.369 36.409-77.369 77.369s36.409 77.369 77.369 77.369 77.369-36.409 77.369-77.369-36.409-77.369-77.369-77.369zM252.587 761.742c-18.205 0-31.858-13.653-31.858-31.858s13.653-31.858 31.858-31.858 31.858 13.653 31.858 31.858c0 18.205-13.653 31.858-31.858 31.858zM758.762 736.62l41.689-18.205-109.363-250.266-41.689 18.205zM725.902 729.885c0 0 0 0 0 0 0-30.162 24.451-54.613 54.613-54.613 30.162 0 54.613 24.451 54.613 54.613 0 0 0 0 0 0 0 0 0 0 0 0 0 30.162-24.451 54.613-54.613 54.613-30.162 0-54.613-24.451-54.613-54.613s0 0 0 0zM780.515 652.515c-40.96 0-77.369 36.409-77.369 77.369s36.409 77.369 77.369 77.369 77.369-36.409 77.369-77.369-36.409-77.369-77.369-77.369zM780.515 761.742c-18.205 0-31.858-13.653-31.858-31.858s13.653-31.858 31.858-31.858c18.205 0 31.858 13.653 31.858 31.858 0 18.205-13.653 31.858-31.858 31.858z"  horiz-adv-x="1024" />

    
    <glyph glyph-name="suggest" unicode="&#58928;" d="M102.877867 729.224533v-681.847466c0-38.0928 30.651733-68.676267 68.1984-68.676267h681.847466c37.546667 0 68.1984 30.583467 68.1984 68.676267V729.224533c0 38.0928-30.651733 68.676267-68.1984 68.676267H171.076267c-37.546667 0-68.1984-30.583467-68.1984-68.676267zM34.133333 729.224533C34.133333 804.864 95.368533 866.167467 171.076267 866.167467h681.847466C928.5632 866.167467 989.866667 804.932267 989.866667 729.224533v-681.847466a136.874667 136.874667 0 0 0-136.942934-136.942934H171.076267A136.874667 136.874667 0 0 0 34.133333 47.445333V729.224533z m194.7648-174.353066h550.0928a34.269867 34.269867 0 0 1 34.4064 34.133333c0 18.8416-15.428267 34.133333-34.4064 34.133333H228.898133a34.269867 34.269867 0 0 1-34.4064-34.133333c0-18.8416 15.428267-34.133333 34.4064-34.133333z m0-204.8h550.0928a34.269867 34.269867 0 0 1 34.4064 34.133333c0 18.8416-15.428267 34.133333-34.4064 34.133333H228.898133a34.269867 34.269867 0 0 1-34.4064-34.133333c0-18.8416 15.428267-34.133333 34.4064-34.133333z m0-204.8h275.0464a34.269867 34.269867 0 0 1 34.4064 34.133333c0 18.8416-15.428267 34.133333-34.4064 34.133333h-275.114666a34.269867 34.269867 0 0 1-34.338134-34.133333c0-18.8416 15.428267-34.133333 34.4064-34.133333z"  horiz-adv-x="1024" />

    
    <glyph glyph-name="Video" unicode="&#58929;" d="M512-64A448 448 0 1 1 512 832a448 448 0 0 1 0-896z m0-64A512 512 0 1 0 512 896a512 512 0 0 0 0-1024z m-45.12 348.032l1.088 310.08L615.68 379.84l-148.736-159.808z m199.424 205.056l-186.496 171.52a51.2 51.2 0 0 1-75.712-44.8l-1.28-353.792a51.2 51.2 0 0 1 76.8-44.544l187.776 182.336a51.2 51.2 0 0 1-1.088 89.28z"  horiz-adv-x="1024" />

    
    <glyph glyph-name="add" unicode="&#58930;" d="M917.207 415.156h-374.051v374.051c-1.176 16.748-14.497 30.037-31.153 31.158-16.751-1.177-30.041-14.498-31.161-31.154l0.001-374.054h-374.051c-16.748-1.176-30.038-14.497-31.158-31.153 0.001-15.625 15.622-31.16 31.158-31.16h374.051v-374.051c0-15.534 15.534-31.156 31.156-31.156 16.748 1.176 30.038 14.498 31.158 31.153l-0.001 374.054h374.051c16.748 1.176 30.037 14.497 31.158 31.153-1.177 16.751-14.498 30.041-31.154 31.161z"  horiz-adv-x="1024" />

    
    <glyph glyph-name="rotateleft_b" unicode="&#59115;" d="M126.4 505.6c-17.6 0-32 14.4-32 32V710.4c0 17.6 14.4 32 32 32s32-14.4 32-32v-172.8c0-17.6-14.4-32-32-32zM512-64c-184 0-347.2 110.4-416 281.6-6.4 16 1.6 35.2 17.6 41.6 16 6.4 35.2-1.6 41.6-17.6C214.4 94.4 353.6 0 512 0c211.2 0 384 172.8 384 384S723.2 768 512 768c-158.4 0-297.6-94.4-356.8-241.6-6.4-16-25.6-24-41.6-17.6-16 6.4-24 25.6-17.6 41.6C164.8 721.6 328 832 512 832c246.4 0 448-201.6 448-448S758.4-64 512-64z"  horiz-adv-x="1024" />

    
    <glyph glyph-name="xiangshang1" unicode="&#58917;" d="M594.580645 247.366569c-6.005865 0-12.01173 3.002933-15.014663 6.005865-9.008798 9.008798-9.008798 24.02346 0 33.032258l210.205279 219.214076c9.008798 9.008798 24.02346 9.008798 33.032258 0l210.205279-219.214076c9.008798-9.008798 9.008798-24.02346 0-33.032258-9.008798-9.008798-24.02346-9.008798-33.032258 0l-195.190616 201.196481-195.190616-201.196481c-3.002933-3.002933-9.008798-6.005865-15.014663-6.005865z"  horiz-adv-x="1591" />

    
    <glyph glyph-name="computer" unicode="&#58913;" d="M957.35072635 100.74854833999996H655.15113041v-78.70182402l63.60474849-62.92293886v-15.73169771H305.24219507v15.73073471l63.60474848 62.92390186v78.701824H66.67238585c-26.36715742 0-47.70933941 21.13128324-47.70933943 47.24035454v629.40273005c0 26.0618839 21.34314499 47.21627935 47.70933943 47.21627934h890.6783405c26.36715742 0 47.73245162-21.13128324 47.73245161-47.21627934v-629.42680525c0-26.08499609-21.36529419-47.21627935-47.73245161-47.21627934z m-15.91852126 660.88827466H82.56779491V226.59635204999995h858.86441018V761.636823z"  horiz-adv-x="1025" />

    
    <glyph glyph-name="Develop" unicode="&#58933;" d="M85.333 810.667v-853.333h853.333v853.333h-853.333zM875.52 276.64l-152.854 152.906c-4.827 4.821-11.492 7.802-18.853 7.802-14.736 0-26.681-11.946-26.681-26.681 0-7.374 2.992-14.050 7.828-18.879l139.68-139.627-144.16-134.4c-5.231-4.884-8.493-11.821-8.493-19.52 0-14.735 11.945-26.679 26.679-26.679 7.036 0 13.435 2.723 18.202 7.174l158.705 147.985c8.138 4.058 13.842 11.933 14.783 21.217 0.252 0.712 0.463 2.622 0.463 4.581 0 10.599-6.184 19.754-15.14 24.053zM204.534 252.107l139.68 139.733c4.821 4.827 7.802 11.492 7.802 18.853 0 14.736-11.946 26.681-26.681 26.681-7.374 0-14.050-2.992-18.879-7.828l-152.854-152.907c-9.093-4.362-15.259-13.496-15.259-24.069 0-1.978 0.216-3.906 0.625-5.76 1.277-9.133 7.252-16.798 15.413-20.462l157.941-147.628c4.691-4.196 10.918-6.76 17.744-6.76 14.727 0 26.666 11.939 26.666 26.666 0 7.476-3.077 14.233-8.033 19.075l-144.165 134.405zM85.333 864h853.333c29.455 0 53.333-23.878 53.333-53.333v-853.333c0-29.455-23.878-53.333-53.333-53.333h-853.333c-29.455 0-53.333 23.878-53.333 53.333v853.333c0 29.455 23.878 53.333 53.333 53.333zM85.333 544h853.333v53.333h-853.333v-53.333zM567.040 473.387l-160-426.667c-1.081-2.788-1.706-6.014-1.706-9.386 0-14.727 11.939-26.666 26.666-26.666 11.355 0 21.052 7.097 24.898 17.097l160.061 426.849c1.081 2.788 1.706 6.014 1.706 9.386 0 14.727-11.939 26.666-26.666 26.666-11.355 0-21.052-7.097-24.898-17.097z"  horiz-adv-x="1024" />

    
    <glyph glyph-name="invoice" unicode="&#58899;" d="M880.25603279 835.41696247H168.29436939c-6.13760056 0-12.27520111-6.13760056-12.2752011-12.27520112v-871.53927758c0-4.09173371 2.04586685-8.1834674 8.1834674-10.22933424l4.09173371-2.04586688c2.04586685 0 6.13760056 0 12.27520111 6.13760056l108.43094298 118.66027722 108.43094298-118.66027722c4.09173371-4.09173371 8.1834674-4.09173371 10.22933423-4.09173368 2.04586685 0 6.13760056 2.04586685 10.22933425 4.09173368l108.430943 118.66027722 108.43094299-120.70614407c2.04586685-2.04586685 6.13760056-2.04586685 8.1834674-2.04586683s6.13760056 0 10.22933424 4.09173368l112.52267666 118.66027722 110.47680984-120.70614407c0-2.04586685 2.04586685-4.09173371 10.22933425-2.04586683 4.09173371 2.04586685 8.1834674 6.13760056 8.18346739 10.22933424V825.18762817c-4.09173371 4.09173371-10.22933428 10.22933428-14.32106793 10.2293343zM880.25603279 896.79296792H168.29436939C129.42289928 896.79296792 94.64316285 864.05909831 94.64316285 823.14176135v-871.53927758c0-28.64213589 18.41280162-55.23840491 42.96320382-65.46773915 10.22933428-6.13760056 22.50453531-6.13760056 28.64213589-6.13760054 16.36693478 0 34.77973646 6.13760056 51.14667121 20.45866848l67.51360601 73.65120656 63.42187232-69.55947288 2.04586685-2.04586685c16.36693478-14.32106795 34.77973646-22.50453531 51.14667121-22.50453531 18.41280162 0 38.87147015 8.1834674 53.19253808 24.55040216l63.42187232 69.55947288 63.4218723-71.60533973c28.64213589-28.64213589 75.69707338-28.64213589 106.38507614 0l67.51360599 71.60533973 63.42187234-69.55947288c18.41280162-22.50453531 49.10080438-30.68800272 77.74294025-20.4586685 28.64213589 8.1834674 49.10080438 36.82560328 49.10080436 67.51360603V825.18762817C951.86137247 864.05909831 919.12750292 896.79296792 880.25603279 896.79296792z m10.22933424-943.14461726c0-4.09173371-2.04586685-8.1834674-8.18346739-10.2293343-8.1834674-2.04586685-10.22933428 0-10.22933427 2.04586685l-110.4768098 120.70614407-112.52267669-118.66027718c-4.09173371-4.09173371-8.1834674-4.09173371-10.22933425-4.09173374s-6.13760056 0-8.18346739 2.04586685l-108.43094296 120.70614407-108.43094302-118.66027718c-4.09173371-4.09173371-8.1834674-4.09173371-10.22933426-4.09173374 0 0-4.09173371 0-10.22933424 4.09173374l-108.43094298 118.66027718-108.43094296-118.66027718c-8.1834674-6.13760056-12.27520111-6.13760056-12.27520113-6.13760057v2.04586683c-4.09173371 2.04586685-8.1834674 6.13760056-8.1834674 10.2293343V825.18762817c0 6.13760056 6.13760056 12.27520111 12.2752011 12.27520113H880.25603279c6.13760056 0 12.27520111-6.13760056 12.2752011-12.27520113v-871.53927751zM630.66027724 553.08733732H340.14718471c-22.50453531 0-42.96320383 20.45866847-42.96320382 42.96320384s20.45866847 42.96320383 42.96320382 42.96320383h290.51309253c22.50453531 0 42.96320383-20.45866847 42.96320381-42.96320383-2.04586685-22.50453531-20.45866847-42.96320383-42.96320381-42.96320384z m77.74294022-202.54081806h-368.25603275c-22.50453531 0-42.96320383 20.45866847-42.96320382 42.96320386s20.45866847 42.96320383 42.96320382 42.96320381h370.30189962c22.50453531 0 42.96320383-20.45866847 42.9632038-42.96320381s-22.50453531-42.96320383-45.00907067-42.96320386z"  horiz-adv-x="1024" />

    
    <glyph glyph-name="info" unicode="&#58945;" d="M512-62.016C266.08-62.016 65.984 138.048 65.984 384 65.984 629.92 266.08 830.016 512 830.016c245.952 0 446.016-200.064 446.016-446.016 0-245.952-200.064-446.016-446.016-446.016z m0 828.032c-210.656 0-382.016-171.36-382.016-382.016 0-210.624 171.36-382.016 382.016-382.016 210.624 0 382.016 171.36 382.016 382.016S722.624 766.016 512 766.016zM464 592a1.5 1.5 0 1 1 96 0 1.5 1.5 0 1 1-96 0z m48-464c-17.664 0-32 14.304-32 32V448c0 17.664 14.336 32 32 32s32-14.336 32-32v-288c0-17.696-14.336-32-32-32z"  horiz-adv-x="1024" />

    
    <glyph glyph-name="shezhi" unicode="&#58954;" d="M585.6-128h-144l-73.6 112c-6.4 12.8-22.4 16-35.2 16l-131.2-25.6-102.4 102.4 25.6 131.2c3.2 12.8-3.2 28.8-16 35.2L0 310.4v144l112 73.6c12.8 6.4 16 22.4 16 35.2l-28.8 131.2 102.4 102.4 131.2-25.6c12.8-3.2 28.8 3.2 35.2 16L438.4 896h144l73.6-112c6.4-12.8 22.4-16 35.2-16l131.2 25.6 102.4-102.4-25.6-131.2c-3.2-12.8 3.2-28.8 16-35.2l112-73.6v-144l-112-73.6c-12.8-6.4-16-22.4-16-35.2l25.6-131.2-102.4-102.4-131.2 25.6c-12.8 3.2-28.8-3.2-35.2-16L585.6-128z m-112 64h76.8l54.4 83.2c22.4 32 60.8 51.2 102.4 41.6l96-19.2 54.4 54.4-19.2 96c-6.4 38.4 9.6 80 41.6 102.4l83.2 54.4v76.8L880 480c-32 22.4-51.2 60.8-41.6 102.4l19.2 96-54.4 54.4-96-19.2c-38.4-6.4-80 9.6-102.4 41.6L550.4 832h-76.8l-54.4-83.2c-22.4-32-60.8-51.2-102.4-41.6l-96 19.2-51.2-51.2 19.2-96c6.4-38.4-9.6-80-41.6-102.4L64 422.4v-76.8l83.2-54.4c32-22.4 51.2-60.8 41.6-102.4l-19.2-96L224 38.39999999999998l96 19.2c38.4 6.4 80-9.6 102.4-41.6l51.2-80zM512 160c-124.8 0-224 99.2-224 224s99.2 224 224 224 224-99.2 224-224-99.2-224-224-224z m0 384c-89.6 0-160-70.4-160-160s70.4-160 160-160 160 70.4 160 160-70.4 160-160 160z"  horiz-adv-x="1027" />

    
    <glyph glyph-name="icon-allowance" unicode="&#58895;" d="M522.65420094 311.75026063999996c161.48139592 0 292.38695529 130.90251486 292.3869553 292.38999978 0 161.47226247-130.90555937 292.38391081-292.3869553 292.38391083s-292.38999979-130.91164836-292.38999979-292.38391083c0-161.48900716 130.9070816-292.38999979 292.38999979-292.38999978z m-105.1537209 309.10730724c-11.93440998 0-21.59762866 9.65104073-21.59762866 21.60067313 0 11.92984326 9.66017419 21.57936171 21.59762866 21.5793617h67.53749581l-80.94544009 64.04241861c-9.3237578 7.39507189-10.92820526 20.96894098-3.54531131 30.32162146 7.5107626 9.40291458 21.08767618 10.93277198 30.36576657 3.53465559l89.30104931-70.6398335 94.64413335 70.98842789c9.49272711 7.09823388 23.02854005 5.28371645 30.24094242-4.33079036 7.12258983-9.52926101 5.18629272-23.05746274-4.34449057-30.21963096l-84.92915829-63.69686873h71.97941012c11.93288773 0 21.5930619-9.64951847 21.59306192-21.58088395 0-11.94811019-9.66017419-21.60067315-21.59306192-21.60067315h-83.57740371v-59.37825633h83.57740371c11.93288773 0 21.5930619-9.65104073 21.59306192-21.59762866 0-11.93593222-9.66017419-21.58240619-21.59306192-21.58240621h-83.57740371v-70.16945943c0-11.93745447-9.66321869-21.59915088-21.59762863-21.5991509-11.93440998 0-21.58849519 9.66169646-21.58849519 21.5991509v70.16945943h-83.54086979c-11.93440998 0-21.59762866 9.64495172-21.59762866 21.58240621 0 11.94658795 9.66017419 21.59762866 21.59762866 21.59762866h83.54086979v59.37825633h-83.54086979v0.00152227z m596.08724412-384.97910084c-18.99915444 45.50754925-76.55832662 45.16199934-108.58486378 37.54467954l-96.12680112-27.01073604c-3.13126037-32.21377345-16.56356055-60.9720481-40.52523753-83.82248533-63.18691625-60.24136993-185.93628066-72.39193886-274.6588764-72.39193885-51.51281038 0-91.57680732 4.08266424-101.8656692 5.25479379-17.23334889 1.92259691-29.64422192 17.51344219-27.70640252 34.74831331 1.90280772 17.283583 17.4449411 29.90300375 34.73917983 27.76272562 68.23316232-7.63254229 259.4622929-13.45361165 326.086441 50.18541174 12.83101296 12.22668122 19.76027753 26.11108853 21.61437336 42.78729535-19.02503262 25.81881728-50.88107823 36.71809986-75.30856251 36.98297068H49.16257433c-14.25735763 0-25.82186178-12.05466741-25.82186176-26.91331227v-239.70201537c0-11.71216203 7.26111422-22.06191373 17.97468276-25.62853652 169.68934727-56.37943139 374.10417416-118.48098615 501.04732674-118.48098612 14.73229843 0 28.44164743 0.84180214 40.90123237 2.61217442 80.91803964 13.54342415 346.31557035 185.3974055 397.94863819 229.47404336 38.15966699 32.61869093 50.8704225 82.32307286 32.37513153 126.59760269z"  horiz-adv-x="1024" />

    
    <glyph glyph-name="Close" unicode="&#58934;" d="M451.77233336468527 348.5102366745473l-62.71623894274234-128.39878647923467a37.39667609632016 37.39667609632016 0 0 0-50.851004567742336-17.374093088507646 39.1976490676403 39.1976490676403 0 0 0-16.950334614515302 51.910400390625l71.08546645045283 145.2431812942028C321.78445278902836 472.03580178916457 279.514555328091 563.1438512474299 279.514555328091 663.1508264869451 279.514555328091 684.4446849167347 296.46488994260625 701.8187780052424 317.3349898984035 701.8187780052424c20.870099955797194 0 37.82043457031249-17.374093088507646 37.82043457031249-38.6679515182972 0-189.84374999999997 201.49710550010207-348.32938089072707 454.05709444284435-348.3293801665306 252.55998894274234 0 454.05709371864793 158.48563089072704 454.05709371864793 348.3293801665306 0 21.293858429789537 16.950334614515302 38.6679515182972 37.82043457031249 38.6679515182972 20.870099955797194 0 37.82043457031249-17.374093088507646 37.82043457031249-38.6679515182972 0-103.39704230725765-45.130266255140306-197.259521484375-120.135498046875-270.4637795805931l86.65858656764031-128.71660515367986a37.39667609632016 37.39667609632016 0 0 0-10.382080078125-52.6519775390625 39.1976490676403 39.1976490676403 0 0 0-53.3935546875 11.335536101460457l-81.573486328125 121.19489386975764a562.9629954636098 562.9629954636098 0 0 0-148.63324836194516-74.36959371864795l28.709629914164545-157.53217414319516a38.6679515182972 38.6679515182972 0 0 0-30.192784211039537-45.13026697933674 37.9263743698597 37.9263743698597 0 0 0-44.17681023180484 30.934361359477045l-27.756173166632646 152.23519430458546a656.2957763671875 656.2957763671875 0 0 0-221.5196877837181-6.144496062397957l-26.484898468852045-145.03130241930484a37.9263743698597 37.9263743698597 0 0 0-44.17681023180484-30.93436063528061 38.6679515182972 38.6679515182972 0 0 0-30.19278348684311 45.130266255140306l26.48489774465561 145.87881864309315a569.9550084739923 569.9550084739923 0 0 0-190.37344754934315 89.62489588558674z"  horiz-adv-x="1609" />

    
    </font>
</defs>
</svg>
